#N canvas 140 233 701 273 10;
#X msg 89 33 440;
#X text 87 13 A4;
#X msg 128 33 880;
#X text 126 13 A5;
#X text 49 13 A3;
#X msg 51 33 220;
#X text 264 6 "Pitch is a perceptual property of sounds that allows
their ordering on a frequency-related scale \, or more commonly \,
pitch is the quality that makes it possible to judge sounds as "higher"
and "lower" in the sense associated with musical melodies. Pitch can
be determined only in sounds that have a frequency that is clear and
stable enough to distinguish from noise. Pitch is a major auditory
attribute of musical tones \, along with duration \, loudness \, and
timbre.";
#X text 383 133 https://en.wikipedia.org/wiki/Pitch_(music);
#X text 608 163 17-Jan-2019;
#X text 117 61 frecuency;
#X text 153 94 sine wave;
#X text 4 35 lower;
#X text 160 34 higher;
#X obj 89 169 amp;
#X msg 107 140 127;
#X msg 146 140 0;
#X text 110 121 on;
#X text 147 122 off;
#X msg 619 192 \; pd dsp 1 \;;
#X msg 619 233 \; pd dsp 0 \;;
#X obj 297 200 0002_loudness;
#X text 321 176 related concepts;
#X obj 297 227 0003_duration;
#X obj 399 200 0004_timbre;
#X obj 89 95 osc~ 440;
#X connect 0 0 24 0;
#X connect 2 0 24 0;
#X connect 5 0 24 0;
#X connect 14 0 13 1;
#X connect 15 0 13 1;
#X connect 24 0 13 0;
