#N canvas 571 39 658 293 10;
#X obj 85 29 bng 15 250 50 0 empty empty empty 17 7 0 10 -262144 -1
-1;
#X msg 85 73 440;
#X floatatom 85 108 5 0 0 0 - - -, f 5;
#X obj 85 141 osc~;
#X obj 86 210 *~;
#X obj 104 176 tgl 15 0 empty empty empty 17 7 0 10 -262144 -1 -1 0
1;
#X obj 86 266 dac~;
#X text 123 174 turn on/off;
#X text 83 7 A4;
#X obj 124 29 bng 15 250 50 0 empty empty empty 17 7 0 10 -262144 -1
-1;
#X msg 124 73 880;
#X text 122 7 A5;
#X obj 47 29 bng 15 250 50 0 empty empty empty 17 7 0 10 -262144 -1
-1;
#X text 45 7 A3;
#X msg 47 73 220;
#X text 226 5 "Pitch is a perceptual property of sounds that allows
their ordering on a frequency-related scale \, or more commonly \,
pitch is the quality that makes it possible to judge sounds as "higher"
and "lower" in the sense associated with musical melodies. Pitch can
be determined only in sounds that have a frequency that is clear and
stable enough to distinguish from noise. Pitch is a major auditory
attribute of musical tones \, along with duration \, loudness \, and
timbre.";
#X text 345 132 https://en.wikipedia.org/wiki/Pitch_(music);
#X text 570 162 17-Jan-2019;
#X text 126 107 frecuency;
#X text 123 139 sine wave;
#X text 0 29 lower;
#X text 146 28 higher;
#X connect 0 0 1 0;
#X connect 1 0 2 0;
#X connect 2 0 3 0;
#X connect 3 0 4 0;
#X connect 4 0 6 0;
#X connect 4 0 6 1;
#X connect 5 0 4 1;
#X connect 9 0 10 0;
#X connect 10 0 2 0;
#X connect 12 0 14 0;
#X connect 14 0 2 0;
