#N canvas 700 50 536 310 10;
#X obj 14 28 bng 15 250 50 0 empty empty empty 17 7 0 10 -262144 -1
-1;
#X msg 14 57 440;
#X obj 14 100 osc~;
#X text 12 6 A4;
#X text 33 41 frecuency;
#X text 35 77 sine wave;
#X text 137 8 "Duration is an amount of time or a particular time interval:
how long or short a note \, phrase \, section \, or composition lasts."
;
#X text 200 61 https://en.wikipedia.org/wiki/Duration_(music);
#X text 446 88 19-Jan-2019;
#X obj 15 278 amp;
#X obj 33 188 bng 15 250 50 0 empty empty empty 17 7 0 10 -262144 -1
-1;
#X msg 33 219 127;
#X msg 80 219 0;
#X obj 80 246 pipe 2000;
#X msg 93 135 1000;
#X msg 140 159 2000;
#X msg 186 187 3000;
#X text 20 170 start sound;
#X text 80 115 1 second;
#X text 133 139 2 seconds;
#X text 185 168 3 seconds;
#X text 342 126 related concepts;
#X msg 459 228 \; pd dsp 1 \;;
#X msg 459 269 \; pd dsp 0 \;;
#X connect 0 0 1 0;
#X connect 1 0 2 0;
#X connect 2 0 9 0;
#X connect 10 0 11 0;
#X connect 10 0 12 0;
#X connect 11 0 9 1;
#X connect 12 0 13 0;
#X connect 13 0 9 1;
#X connect 14 0 13 1;
#X connect 15 0 13 1;
#X connect 16 0 13 1;
