#N canvas 700 50 605 317 10;
#X text 19 7 A4;
#X text 24 53 sine wave;
#X text 510 133 19-Jan-2019;
#X obj 15 128 amp;
#X msg 33 97 127;
#X msg 80 97 0;
#X text 277 190 related concepts;
#X msg 525 237 \; pd dsp 1 \;;
#X msg 525 278 \; pd dsp 0 \;;
#X text 167 9 "Timbre \, also known as tone color or tone quality from
psychoacoustics \, is the perceived sound quality of a musical note
\, sound or tone. Timbre distinguishes different types of sound production
\, such as string instruments \, wind instruments \, and percussion
instruments. It also enables listeners to distinguish different instruments
in the same category.";
#X text 337 109 https://en.wikipedia.org/wiki/Timbre;
#X text 38 76 on;
#X text 82 76 off;
#X text 19 164 A4;
#X obj 15 280 amp;
#X msg 33 250 127;
#X msg 80 250 0;
#X text 38 229 on;
#X text 82 229 off;
#X text 23 206 sawtooth wave;
#X obj 14 31 osc~ 440;
#X obj 14 184 phasor~ 440;
#X connect 4 0 3 1;
#X connect 5 0 3 1;
#X connect 15 0 14 1;
#X connect 16 0 14 1;
#X connect 20 0 3 0;
#X connect 21 0 14 0;
