#N canvas 562 0 737 601 10;
#X text 30 497 sine wave;
#X obj 21 574 amp;
#X msg 39 537 127;
#X msg 86 537 0;
#X text 500 163 related concepts;
#X msg 640 506 \; pd dsp 1 \;;
#X msg 640 547 \; pd dsp 0 \;;
#X text 34 456 frecuency;
#X obj 506 189 0001_pitch;
#X text 400 90 https://en.wikipedia.org/wiki/Interval_(music);
#X text 645 112 21-Jan-2019;
#X obj 20 388 mtof;
#X floatatom 20 438 5 0 0 0 - - -, f 5;
#X floatatom 20 283 5 0 0 0 - - -, f 5;
#X msg 20 241 69;
#X floatatom 125 360 5 0 0 0 - - -, f 5;
#X obj 20 476 osc~;
#X text 135 498 sine wave;
#X obj 126 575 amp;
#X msg 144 538 127;
#X msg 191 538 0;
#X text 137 456 frecuency;
#X obj 125 390 mtof;
#X floatatom 125 439 5 0 0 0 - - -, f 5;
#X obj 125 477 osc~;
#X text 24 220 A4;
#X text 42 518 on;
#X text 149 518 on;
#X text 87 521 off;
#X text 193 519 off;
#X obj 59 339 mton;
#X symbolatom 59 368 4 0 0 0 - - -, f 4;
#X obj 190 403 mton;
#X symbolatom 190 432 4 0 0 0 - - -, f 4;
#X obj 143 14 vradio 15 1 0 13 empty empty empty 0 -8 0 10 -262144
-1 -1 0;
#X floatatom 161 249 5 0 0 0 - - -, f 5;
#X obj 125 326 + 0;
#X text 164 11 perfect unison;
#X text 163 27 minor second;
#X text 163 44 major second;
#X text 162 74 major third;
#X text 163 60 minor third;
#X text 162 90 perfect fourth;
#X text 162 117 perfect fifth;
#X text 161 135 minor sixth;
#X text 160 149 major sixth;
#X text 160 164 minor seventh;
#X text 160 179 major seventh;
#X text 161 192 perfect octave;
#X obj 90 252 bng 15 250 50 0 empty empty empty 17 7 0 10 -262144 -1
-1;
#X text 14 14 diminished second;
#X text 154 266 number of semitones;
#X text 21 29 augmented unison;
#X text 21 45 diminished third;
#X text 21 61 augmented second;
#X text 14 77 diminished fourth;
#X text 28 92 augmented third;
#X text 21 104 diminished fifth;
#X text 159 103 augmented fourth;
#X text 21 117 diminished sixth;
#X text 28 134 augmented fifth;
#X text 7 151 diminished seventh;
#X text 28 165 augmented sixth;
#X text 14 179 diminished octave;
#X text 14 193 augmented seventh;
#X text 302 6 "An Interval is the difference in pitch between two sounds.
An interval may be described as horizontal \, linear \, or melodic
if it refers to successively sounding tones \, such as two adjacent
pitches in a melody \, and vertical or harmonic if it pertains to simultaneously
sounding tones \, such as in a chord.";
#X connect 2 0 1 1;
#X connect 3 0 1 1;
#X connect 11 0 12 0;
#X connect 12 0 16 0;
#X connect 13 0 11 0;
#X connect 13 0 30 0;
#X connect 13 0 36 0;
#X connect 14 0 13 0;
#X connect 15 0 22 0;
#X connect 15 0 32 0;
#X connect 16 0 1 0;
#X connect 19 0 18 1;
#X connect 20 0 18 1;
#X connect 22 0 23 0;
#X connect 23 0 24 0;
#X connect 24 0 18 0;
#X connect 30 0 31 0;
#X connect 32 0 33 0;
#X connect 34 0 35 0;
#X connect 34 0 36 1;
#X connect 34 0 49 0;
#X connect 36 0 15 0;
#X connect 49 0 13 0;
