#N canvas 562 50 394 425 10;
#X text 27 318 sine wave;
#X obj 18 395 amp;
#X msg 36 358 127;
#X msg 83 358 0;
#X text 270 205 related concepts;
#X msg 319 349 \; pd dsp 1 \;;
#X msg 319 390 \; pd dsp 0 \;;
#X text 31 277 frecuency;
#X obj 17 209 mtof;
#X floatatom 17 259 5 0 0 0 - - -;
#X floatatom 17 104 5 0 0 0 - - -;
#X msg 17 62 69;
#X floatatom 122 181 5 0 0 0 - - -;
#X obj 17 297 osc~;
#X text 132 319 sine wave;
#X obj 123 396 amp;
#X msg 141 359 127;
#X msg 188 359 0;
#X text 134 277 frecuency;
#X obj 122 211 mtof;
#X floatatom 122 260 5 0 0 0 - - -;
#X obj 122 298 osc~;
#X text 21 41 A4;
#X text 39 339 on;
#X text 146 339 on;
#X text 84 342 off;
#X text 190 340 off;
#X obj 56 160 mton;
#X symbolatom 56 189 4 0 0 0 - - -;
#X obj 187 224 mton;
#X symbolatom 187 253 4 0 0 0 - - -;
#X obj 276 231 0007_interval;
#X text 17 9 "unison is two or more musical parts sounding the same
pitch or at an octave interval \, usually at the same time.";
#X text 161 44 https://en.wikipedia.org/wiki/Unison;
#X text 310 69 24-Jan-2019;
#X obj 122 147 + 0;
#X connect 2 0 1 1;
#X connect 3 0 1 1;
#X connect 8 0 9 0;
#X connect 9 0 13 0;
#X connect 10 0 8 0;
#X connect 10 0 27 0;
#X connect 10 0 35 0;
#X connect 11 0 10 0;
#X connect 12 0 19 0;
#X connect 12 0 29 0;
#X connect 13 0 1 0;
#X connect 16 0 15 1;
#X connect 17 0 15 1;
#X connect 19 0 20 0;
#X connect 20 0 21 0;
#X connect 21 0 15 0;
#X connect 27 0 28 0;
#X connect 29 0 30 0;
#X connect 35 0 12 0;
