#N canvas 1678 359 765 490 12;
#X obj 107 403 dac~;
#X floatatom 107 132 5 0 0 0 - - - 0;
#X floatatom 192 204 5 0 0 0 - - - 0;
#X obj 192 243 osc~;
#X obj 192 284 *~ 0.75;
#X obj 107 206 osc~;
#X msg 107 76 220;
#X obj 107 28 loadbang;
#X floatatom 269 202 5 0 0 0 - - - 0;
#X obj 269 241 osc~;
#X obj 269 283 *~ 0.5;
#X floatatom 331 203 5 0 0 0 - - - 0;
#X obj 331 242 osc~;
#X obj 331 284 *~ 0.35;
#X obj 106 345 *~ 0.15;
#X text 379 65 https://www.youtube.com/watch?v=JtT_bZeoKzk;
#X obj 192 172 * 3;
#X obj 269 171 * 5;
#X obj 331 172 * 7;
#X connect 1 0 5 0;
#X connect 1 0 16 0;
#X connect 1 0 17 0;
#X connect 1 0 18 0;
#X connect 2 0 3 0;
#X connect 3 0 4 0;
#X connect 4 0 14 0;
#X connect 5 0 14 0;
#X connect 6 0 1 0;
#X connect 7 0 6 0;
#X connect 8 0 9 0;
#X connect 9 0 10 0;
#X connect 10 0 14 0;
#X connect 11 0 12 0;
#X connect 12 0 13 0;
#X connect 13 0 14 0;
#X connect 14 0 0 0;
#X connect 14 0 0 1;
#X connect 16 0 2 0;
#X connect 17 0 8 0;
#X connect 18 0 11 0;
