#N canvas 1678 359 765 490 12;
#X obj 107 403 dac~;
#X floatatom 107 132 5 0 0 0 - - - 0;
#X floatatom 192 204 5 0 0 0 - - - 0;
#X obj 192 243 osc~;
#X obj 107 206 osc~;
#X msg 107 76 220;
#X obj 107 28 loadbang;
#X floatatom 269 202 5 0 0 0 - - - 0;
#X obj 269 241 osc~;
#X floatatom 331 203 5 0 0 0 - - - 0;
#X obj 331 242 osc~;
#X text 379 65 https://www.youtube.com/watch?v=JtT_bZeoKzk;
#X floatatom 396 202 5 0 0 0 - - - 0;
#X obj 396 241 osc~;
#X floatatom 458 201 5 0 0 0 - - - 0;
#X obj 458 240 osc~;
#X floatatom 521 201 5 0 0 0 - - - 0;
#X obj 521 240 osc~;
#X floatatom 585 200 5 0 0 0 - - - 0;
#X obj 585 239 osc~;
#X obj 192 172 * 2.23;
#X obj 192 284 *~ 0.85;
#X obj 106 345 *~ 0.1;
#X obj 269 171 * 3.73;
#X obj 269 283 *~ 0.75;
#X obj 331 172 * 4.81;
#X obj 331 284 *~ 0.1;
#X obj 396 171 * 5.43;
#X obj 396 284 *~ 0.65;
#X obj 458 170 * 6.24;
#X obj 458 282 *~ 0.2;
#X obj 521 170 * 7.35;
#X obj 521 282 *~ 0.55;
#X obj 585 168 * 8.12;
#X obj 585 281 *~ 0.45;
#X connect 1 0 4 0;
#X connect 1 0 20 0;
#X connect 1 0 23 0;
#X connect 1 0 25 0;
#X connect 1 0 27 0;
#X connect 1 0 29 0;
#X connect 1 0 31 0;
#X connect 1 0 33 0;
#X connect 2 0 3 0;
#X connect 3 0 21 0;
#X connect 4 0 22 0;
#X connect 5 0 1 0;
#X connect 6 0 5 0;
#X connect 7 0 8 0;
#X connect 8 0 24 0;
#X connect 9 0 10 0;
#X connect 10 0 26 0;
#X connect 12 0 13 0;
#X connect 13 0 28 0;
#X connect 14 0 15 0;
#X connect 15 0 30 0;
#X connect 16 0 17 0;
#X connect 17 0 32 0;
#X connect 18 0 19 0;
#X connect 19 0 34 0;
#X connect 20 0 2 0;
#X connect 21 0 22 0;
#X connect 22 0 0 0;
#X connect 22 0 0 1;
#X connect 23 0 7 0;
#X connect 24 0 22 0;
#X connect 25 0 9 0;
#X connect 26 0 22 0;
#X connect 27 0 12 0;
#X connect 28 0 22 0;
#X connect 29 0 14 0;
#X connect 30 0 22 0;
#X connect 31 0 16 0;
#X connect 32 0 22 0;
#X connect 33 0 18 0;
#X connect 34 0 22 0;
