#N canvas 1676 291 611 522 12;
#X obj 43 14 noise~;
#X obj 43 307 dac~;
#X obj 43 136 lop~;
#X floatatom 68 96 5 0 0 0 - - - 0;
#X msg 106 175 0;
#X floatatom 61 224 5 0 0 0 - - - 0;
#X obj 43 260 *~;
#X msg 68 54 1000;
#X obj 209 13 noise~;
#X obj 209 306 dac~;
#X floatatom 234 95 5 0 0 0 - - - 0;
#X msg 271 174 0;
#X floatatom 227 223 5 0 0 0 - - - 0;
#X obj 209 259 *~;
#X obj 209 135 hip~;
#X msg 234 53 4000;
#X msg 61 175 0.2;
#X msg 227 174 0.2;
#X text 46 345 lowpass;
#X text 199 347 highpass;
#X obj 366 14 noise~;
#X obj 366 307 dac~;
#X floatatom 375 67 5 0 0 0 - - - 0;
#X msg 429 175 0;
#X floatatom 384 224 5 0 0 0 - - - 0;
#X obj 366 260 *~;
#X msg 384 175 0.2;
#X text 356 348 bandpass;
#X obj 366 151 bp~;
#X floatatom 384 123 5 0 0 0 - - - 0;
#X msg 384 92 5;
#X msg 375 38 440;
#X text 139 410 https://www.youtube.com/watch?v=FVYkQFP1_D4;
#X connect 0 0 2 0;
#X connect 2 0 6 0;
#X connect 3 0 2 1;
#X connect 4 0 5 0;
#X connect 5 0 6 1;
#X connect 6 0 1 0;
#X connect 6 0 1 1;
#X connect 7 0 3 0;
#X connect 8 0 14 0;
#X connect 10 0 14 1;
#X connect 11 0 12 0;
#X connect 12 0 13 1;
#X connect 13 0 9 0;
#X connect 13 0 9 1;
#X connect 14 0 13 0;
#X connect 15 0 10 0;
#X connect 16 0 5 0;
#X connect 17 0 12 0;
#X connect 20 0 28 0;
#X connect 22 0 28 1;
#X connect 23 0 24 0;
#X connect 24 0 25 1;
#X connect 25 0 21 0;
#X connect 25 0 21 1;
#X connect 26 0 24 0;
#X connect 28 0 25 0;
#X connect 29 0 28 2;
#X connect 30 0 29 0;
#X connect 31 0 22 0;
