#N canvas 1695 258 630 487 12;
#X obj 63 60 noise~;
#X obj 63 103 *~ 0.2;
#X obj 152 30 bng 19 250 50 0 empty empty empty 0 -10 0 12 #fcfcfc #000000 #000000;
#X obj 229 102 bng 19 250 50 0 empty empty empty 0 -10 0 12 #fcfcfc #000000 #000000;
#X obj 322 170 bng 19 250 50 0 empty empty empty 0 -10 0 12 #fcfcfc #000000 #000000;
#X obj 63 325 *~;
#X obj 63 381 dac~;
#X obj 152 245 line~;
#X text 273 396 https://www.youtube.com/watch?v=W7Pp-DhMA_E;
#X text 265 420 https://www.youtube.com/watch?v=-MjnqnmoKZE;
#X msg 152 69 1 1000;
#X obj 229 66 delay 1000;
#X obj 322 133 delay 4500;
#X msg 322 205 0 1000;
#X msg 229 139 0.5 1500;
#X obj 152 305 snapshot~;
#X floatatom 152 343 5 0 0 0 - - - 0;
#X obj 229 241 loadbang;
#X obj 229 272 metro 100;
#X connect 0 0 1 0;
#X connect 1 0 5 0;
#X connect 2 0 10 0;
#X connect 2 0 11 0;
#X connect 3 0 14 0;
#X connect 3 0 12 0;
#X connect 4 0 13 0;
#X connect 5 0 6 0;
#X connect 5 0 6 1;
#X connect 7 0 5 1;
#X connect 7 0 15 0;
#X connect 10 0 7 0;
#X connect 11 0 3 0;
#X connect 12 0 4 0;
#X connect 13 0 7 0;
#X connect 14 0 7 0;
#X connect 15 0 16 0;
#X connect 17 0 18 0;
#X connect 18 0 15 0;
