#N canvas 1695 258 630 487 12;
#X obj 63 60 noise~;
#X obj 63 103 *~ 0.2;
#X obj 63 140 hip~ 4000;
#X obj 152 30 bng 19 250 50 0 empty empty empty 0 -10 0 12 #fcfcfc #000000 #000000;
#X obj 229 102 bng 19 250 50 0 empty empty empty 0 -10 0 12 #fcfcfc #000000 #000000;
#X obj 322 170 bng 19 250 50 0 empty empty empty 0 -10 0 12 #fcfcfc #000000 #000000;
#X msg 152 69 1 5;
#X obj 229 66 delay 5;
#X msg 229 139 0.5 100;
#X obj 322 133 delay 5;
#X msg 322 205 0 150;
#X obj 63 325 *~;
#X obj 63 381 dac~;
#X obj 152 245 line~;
#X text 222 338 https://www.youtube.com/watch?v=W7Pp-DhMA_E;
#X text 214 362 https://www.youtube.com/watch?v=-MjnqnmoKZE;
#X connect 0 0 1 0;
#X connect 1 0 2 0;
#X connect 2 0 11 0;
#X connect 3 0 6 0;
#X connect 3 0 7 0;
#X connect 4 0 8 0;
#X connect 4 0 9 0;
#X connect 5 0 10 0;
#X connect 6 0 13 0;
#X connect 7 0 4 0;
#X connect 8 0 13 0;
#X connect 9 0 5 0;
#X connect 10 0 13 0;
#X connect 11 0 12 0;
#X connect 11 0 12 1;
#X connect 13 0 11 1;
