#N canvas 1694 258 802 561 12;
#X obj 150 72 noise~;
#X obj 270 55 bng 19 250 50 0 empty empty empty 0 -10 0 12 #fcfcfc #000000 #000000;
#X obj 347 127 bng 19 250 50 0 empty empty empty 0 -10 0 12 #fcfcfc #000000 #000000;
#X obj 440 195 bng 19 250 50 0 empty empty empty 0 -10 0 12 #fcfcfc #000000 #000000;
#X msg 270 94 1 5;
#X obj 347 91 delay 5;
#X obj 150 319 *~;
#X obj 150 375 dac~;
#X obj 270 270 line~;
#X text 354 345 https://www.youtube.com/watch?v=W7Pp-DhMA_E;
#X text 346 369 https://www.youtube.com/watch?v=-MjnqnmoKZE;
#X obj 440 158 delay 50;
#X msg 440 230 0 300;
#X obj 150 152 bp~ 150 4;
#X obj 150 190 *~ 20;
#X obj 150 229 clip~ -0.9 0.9;
#X obj 57 133 hip~ 8000;
#X obj 57 175 *~ 0.1;
#X msg 347 164 0.25 50;
#X obj 150 115 *~ 1;
#X connect 0 0 16 0;
#X connect 0 0 19 0;
#X connect 1 0 4 0;
#X connect 1 0 5 0;
#X connect 2 0 18 0;
#X connect 2 0 11 0;
#X connect 3 0 12 0;
#X connect 4 0 8 0;
#X connect 5 0 2 0;
#X connect 6 0 7 0;
#X connect 6 0 7 1;
#X connect 8 0 6 1;
#X connect 11 0 3 0;
#X connect 12 0 8 0;
#X connect 13 0 14 0;
#X connect 14 0 15 0;
#X connect 15 0 6 0;
#X connect 16 0 17 0;
#X connect 17 0 15 0;
#X connect 18 0 8 0;
#X connect 19 0 13 0;
