#N canvas 1658 305 726 591 12;
#X obj 19 16 tgl 19 0 empty empty empty 0 -10 0 12 #fcfcfc #000000 #000000 0 1;
#X obj 19 48 metro 125;
#X obj 19 78 bng 19 250 50 0 empty empty empty 0 -10 0 12 #fcfcfc #000000 #000000;
#X obj 19 109 s bang;
#N canvas 2482 226 386 354 pitch 1;
#X obj 61 43 random 87;
#X obj 61 72 + 21;
#X obj 64 103 hsl 162 19 0 127 0 0 empty empty empty -2 -10 0 12 #fcfcfc #000000 #000000 0 1;
#X floatatom 61 134 5 0 0 0 - - - 0;
#X obj 61 167 mtof;
#X obj 15 233 outlet;
#X obj 61 15 inlet;
#X obj 15 201 /, f 7;
#X msg 15 169 1000;
#X connect 0 0 1 0;
#X connect 1 0 2 0;
#X connect 2 0 3 0;
#X connect 3 0 4 0;
#X connect 3 0 8 0;
#X connect 4 0 7 1;
#X connect 6 0 0 0;
#X connect 7 0 5 0;
#X connect 8 0 7 0;
#X restore 334 51 pd pitch;
#X obj 334 21 r bang;
#X floatatom 334 83 9 0 0 0 - - - 0;
#N canvas 2482 226 280 277 burst 0;
#X obj 104 17 inlet;
#X obj 42 208 outlet~;
#X obj 142 61 pipe 7;
#X obj 42 41 noise~;
#X obj 42 172 *~;
#X msg 104 95 1 5;
#X msg 142 94 0 5;
#X obj 104 136 line~;
#X connect 0 0 2 0;
#X connect 0 0 5 0;
#X connect 2 0 6 0;
#X connect 3 0 4 0;
#X connect 4 0 1 0;
#X connect 5 0 7 0;
#X connect 6 0 7 0;
#X connect 7 0 4 1;
#X restore 140 49 pd burst;
#X obj 140 13 r bang;
#X obj 140 105 delwrite~ delbuff 100;
#X obj 334 115 delread~ delbuff 100;
#N canvas 2591 468 371 247 resonance 1;
#X obj 64 103 hsl 162 19 0 127 0 0 empty empty empty -2 -10 0 12 #fcfcfc #000000 #000000 0 1;
#X obj 61 171 outlet;
#X obj 61 15 inlet;
#X obj 61 43 random 57;
#X obj 61 72 + 70;
#X obj 61 137 / 127;
#X connect 0 0 5 0;
#X connect 2 0 3 0;
#X connect 3 0 4 0;
#X connect 4 0 0 0;
#X connect 5 0 1 0;
#X restore 380 174 pd resonance;
#X obj 380 145 r bang;
#X floatatom 380 205 9 0 0 0 - - - 0;
#X obj 334 237 *~ 0.99;
#N canvas 2436 711 379 269 damping 1;
#X obj 64 103 hsl 162 19 0 140 0 0 empty empty empty -2 -10 0 12 #fcfcfc #000000 #000000 0 1;
#X floatatom 61 134 5 0 0 0 - - - 0;
#X obj 61 167 mtof;
#X obj 61 201 outlet;
#X obj 61 15 inlet;
#X obj 61 43 random 60;
#X obj 61 72 + 80;
#X connect 0 0 1 0;
#X connect 1 0 2 0;
#X connect 2 0 3 0;
#X connect 4 0 5 0;
#X connect 5 0 6 0;
#X connect 6 0 0 0;
#X restore 408 268 pd damping;
#X floatatom 408 299 8 0 0 0 - - - 0;
#X obj 408 237 r bang;
#X obj 334 330 lop~ 2000, f 11;
#X obj 371 392 send~ feedback;
#X obj 159 76 receive~ feedback;
#X obj 156 154 catch~ delayEffect;
#X obj 382 369 throw~ delayEffect;
#X obj 156 186 delwrite~ delEffect 500;
#X obj 155 227 delread~ delEffect 400;
#X obj 155 257 lop~ 2000;
#X obj 155 289 hip~ 600;
#X obj 155 321 hip~ 600;
#X obj 155 354 *~ 0.5;
#X obj 155 423 throw~ delayEffect;
#X obj 334 436 dac~;
#X text 13 555 https://www.youtube.com/watch?v=xEpbMWpz65E;
#X connect 0 0 1 0;
#X connect 1 0 2 0;
#X connect 2 0 3 0;
#X connect 4 0 6 0;
#X connect 5 0 4 0;
#X connect 6 0 10 0;
#X connect 7 0 9 0;
#X connect 8 0 7 0;
#X connect 10 0 14 0;
#X connect 11 0 13 0;
#X connect 12 0 11 0;
#X connect 13 0 14 1;
#X connect 14 0 18 0;
#X connect 15 0 16 0;
#X connect 16 0 18 1;
#X connect 17 0 15 0;
#X connect 18 0 19 0;
#X connect 18 0 22 0;
#X connect 18 0 30 1;
#X connect 18 0 30 0;
#X connect 20 0 9 0;
#X connect 21 0 23 0;
#X connect 24 0 25 0;
#X connect 25 0 26 0;
#X connect 26 0 27 0;
#X connect 27 0 28 0;
#X connect 28 0 29 0;
#X connect 28 0 30 1;
#X connect 28 0 30 0;
