#N canvas 1896 194 450 698 12;
#X obj 31 18 tgl 19 0 empty empty empty 0 -10 0 12 #fcfcfc #000000 #000000 0 1;
#X obj 31 42 metro 2000;
#X obj 31 66 bng 19 250 50 0 empty empty empty 0 -10 0 12 #fcfcfc #000000 #000000;
#X obj 63 103 random 5000;
#X floatatom 63 133 5 0 0 0 - - - 0;
#X obj 63 162 s rand;
#X obj 98 12 r rand;
#X obj 31 190 random 88;
#X obj 31 220 + 21;
#X obj 31 275 mtof;
#X floatatom 31 248 5 0 0 0 - - - 0;
#X floatatom 31 306 8 0 0 0 - - - 0;
#X obj 31 337 osc~;
#X obj 31 371 *~ 0.1;
#X obj 31 566 hip~ 40;
#X obj 31 623 dac~;
#X obj 109 407 delwrite~ delayBuff 100;
#X obj 109 436 delread~ delayBuff 100;
#X obj 109 493 *~;
#X obj 127 462 osc~ 55;
#X obj 109 522 clip~ -0.8 0.8;
#X obj 109 566 s~ feedback;
#X obj 109 369 r~ feedback;
#X text 30 664 https://www.youtube.com/watch?v=5pJR8DRkXxE;
#X connect 0 0 1 0;
#X connect 1 0 2 0;
#X connect 2 0 3 0;
#X connect 2 0 7 0;
#X connect 3 0 4 0;
#X connect 4 0 5 0;
#X connect 6 0 1 1;
#X connect 7 0 8 0;
#X connect 8 0 10 0;
#X connect 9 0 11 0;
#X connect 10 0 9 0;
#X connect 11 0 12 0;
#X connect 12 0 13 0;
#X connect 13 0 14 0;
#X connect 13 0 16 0;
#X connect 14 0 15 0;
#X connect 14 0 15 1;
#X connect 17 0 18 0;
#X connect 18 0 20 0;
#X connect 19 0 18 1;
#X connect 20 0 14 0;
#X connect 20 0 21 0;
#X connect 22 0 16 0;
