#N canvas 1577 103 438 489 12;
#X obj 18 373 dac~;
#X obj 19 40 bng 19 250 50 0 empty empty empty 0 -10 0 12 #fcfcfc #000000 #000000;
#X obj 107 118 *~;
#X obj 227 148 snapshot~;
#X floatatom 227 172 10 0 0 0 - - - 0;
#X obj 245 110 metro 100;
#X obj 245 79 tgl 19 0 empty empty empty 0 -10 0 12 #fcfcfc #000000 #000000 0 1;
#X obj 227 222 bng 19 250 50 0 empty empty empty 0 -10 0 12 #fcfcfc #000000 #000000;
#X obj 227 195 sel 0;
#X obj 227 320 spigot;
#X obj 266 293 tgl 19 0 empty empty empty 0 -10 0 12 #fcfcfc #000000 #000000 0 1;
#X obj 227 355 bng 19 250 50 0 empty empty empty 0 -10 0 12 #fcfcfc #000000 #000000;
#X msg 266 252 0, f 2;
#X msg 309 252 1, f 2;
#X obj 309 225 delay 100;
#X obj 227 387 s EOC;
#X obj 19 14 r EOC;
#N canvas 2497 393 272 374 fm_osc 0;
#X obj 23 10 inlet;
#X obj 23 294 outlet~;
#X obj 23 48 random 88;
#X obj 23 72 + 21;
#X floatatom 23 96 5 0 0 0 - - - 0;
#X obj 23 119 mtof;
#X obj 23 267 osc~;
#X obj 101 48 random 88;
#X obj 101 72 + 21;
#X floatatom 101 96 5 0 0 0 - - - 0;
#X obj 101 119 mtof;
#X obj 101 145 osc~;
#X obj 23 241 +~;
#X obj 101 181 *~;
#X connect 0 0 2 0;
#X connect 0 0 7 0;
#X connect 2 0 3 0;
#X connect 3 0 4 0;
#X connect 4 0 5 0;
#X connect 5 0 12 0;
#X connect 5 0 13 1;
#X connect 6 0 1 0;
#X connect 7 0 8 0;
#X connect 8 0 9 0;
#X connect 9 0 10 0;
#X connect 10 0 11 0;
#X connect 11 0 13 0;
#X connect 12 0 6 0;
#X connect 13 0 12 1;
#X restore 107 43 pd fm_osc;
#X obj 266 225 r EOC;
#X obj 19 68 s bang;
#X obj 107 11 r bang;
#X obj 227 10 r bang;
#X obj 309 195 r bang;
#N canvas 2385 309 506 506 ar_envelope 0;
#X obj 24 15 inlet;
#X obj 24 332 outlet~;
#X obj 104 148 delay 500;
#X obj 24 302 line~;
#X obj 24 59 random 500;
#X obj 24 83 + 50;
#X msg 24 245 0.75 \$1;
#X floatatom 24 107 5 0 0 0 - - - 0;
#X obj 104 172 random 3000;
#X obj 104 196 + 100;
#X floatatom 104 220 5 0 0 0 - - - 0;
#X msg 104 243 0 \$1;
#X obj 104 58 delay 5;
#X connect 0 0 12 0;
#X connect 0 0 4 0;
#X connect 2 0 8 0;
#X connect 3 0 1 0;
#X connect 4 0 5 0;
#X connect 5 0 7 0;
#X connect 6 0 3 0;
#X connect 7 0 6 0;
#X connect 7 0 2 1;
#X connect 8 0 9 0;
#X connect 9 0 10 0;
#X connect 10 0 11 0;
#X connect 11 0 3 0;
#X connect 12 0 2 0;
#X restore 227 43 pd ar_envelope;
#N canvas 2343 263 450 300 filter 0;
#X obj 37 25 inlet~;
#X obj 67 87 random 88;
#X obj 67 111 + 21;
#X floatatom 67 135 5 0 0 0 - - - 0;
#X obj 67 158 mtof;
#X obj 67 59 inlet;
#X obj 37 197 bp~ 100 3;
#X obj 37 234 outlet~;
#X connect 0 0 6 0;
#X connect 1 0 2 0;
#X connect 2 0 3 0;
#X connect 3 0 4 0;
#X connect 4 0 6 1;
#X connect 5 0 1 0;
#X connect 6 0 7 0;
#X restore 107 175 pd filter;
#X obj 167 141 r bang;
#X obj 18 295 throw~ left;
#X obj 107 295 throw~ right;
#X obj 18 326 catch~ left;
#X obj 108 326 catch~ right;
#X obj 120 240 throw~ delay;
#N canvas 2531 250 265 300 delay 0;
#X obj 28 15 catch~ delay;
#X obj 28 39 lop~ 2000;
#X obj 28 63 hip~ 600;
#X obj 28 87 *~ 0.9;
#X obj 28 111 delwrite~ delayBuff 1000;
#X obj 28 140 delread~ delayBuff 1000;
#X obj 28 170 throw~ left;
#X obj 28 195 delread~ delayBuff 900;
#X obj 28 251 throw~ right;
#X obj 47 228 throw~ delay;
#X connect 0 0 1 0;
#X connect 1 0 2 0;
#X connect 2 0 3 0;
#X connect 3 0 4 0;
#X connect 5 0 6 0;
#X connect 7 0 8 0;
#X connect 7 0 9 0;
#X restore 130 268 pd delay;
#X text 10 459 https://www.youtube.com/watch?v=SydWUqNRqQ4;
#X text 267 78 start!;
#X connect 1 0 19 0;
#X connect 2 0 24 0;
#X connect 3 0 4 0;
#X connect 4 0 8 0;
#X connect 5 0 3 0;
#X connect 6 0 5 0;
#X connect 7 0 9 0;
#X connect 8 0 7 0;
#X connect 9 0 11 0;
#X connect 10 0 9 1;
#X connect 11 0 15 0;
#X connect 12 0 10 0;
#X connect 13 0 10 0;
#X connect 14 0 13 0;
#X connect 16 0 1 0;
#X connect 17 0 2 0;
#X connect 18 0 12 0;
#X connect 20 0 17 0;
#X connect 21 0 23 0;
#X connect 22 0 14 0;
#X connect 23 0 3 0;
#X connect 23 0 2 1;
#X connect 24 0 26 0;
#X connect 24 0 27 0;
#X connect 24 0 30 0;
#X connect 25 0 24 1;
#X connect 28 0 0 0;
#X connect 29 0 0 1;
