#N canvas 2848 30 484 563 12;
#X obj 18 434 dac~;
#X obj 19 40 bng 19 250 50 0 empty empty empty 0 -10 0 12 #fcfcfc #000000 #000000;
#X obj 107 89 *~;
#X obj 227 148 snapshot~;
#X floatatom 227 172 10 0 0 0 - - - 0;
#X obj 245 110 metro 100;
#X obj 245 79 tgl 19 0 empty empty empty 0 -10 0 12 #fcfcfc #000000 #000000 0 1;
#X obj 227 222 bng 19 250 50 0 empty empty empty 0 -10 0 12 #fcfcfc #000000 #000000;
#X obj 227 195 sel 0;
#X obj 227 320 spigot;
#X obj 266 293 tgl 19 0 empty empty empty 0 -10 0 12 #fcfcfc #000000 #000000 0 1;
#X obj 227 355 bng 19 250 50 0 empty empty empty 0 -10 0 12 #fcfcfc #000000 #000000;
#X msg 266 252 0, f 2;
#X msg 309 252 1, f 2;
#X obj 309 225 delay 100;
#X obj 227 387 s EOC;
#X obj 19 14 r EOC;
#N canvas 2497 393 272 374 fm_osc 0;
#X obj 23 10 inlet;
#X obj 23 294 outlet~;
#X obj 23 48 random 88;
#X obj 23 72 + 21;
#X floatatom 23 96 5 0 0 0 - - - 0;
#X obj 23 119 mtof;
#X obj 23 267 osc~;
#X obj 101 48 random 88;
#X obj 101 72 + 21;
#X floatatom 101 96 5 0 0 0 - - - 0;
#X obj 101 119 mtof;
#X obj 101 145 osc~;
#X obj 23 241 +~;
#X obj 101 181 *~;
#X connect 0 0 2 0;
#X connect 0 0 7 0;
#X connect 2 0 3 0;
#X connect 3 0 4 0;
#X connect 4 0 5 0;
#X connect 5 0 12 0;
#X connect 5 0 13 1;
#X connect 6 0 1 0;
#X connect 7 0 8 0;
#X connect 8 0 9 0;
#X connect 9 0 10 0;
#X connect 10 0 11 0;
#X connect 11 0 13 0;
#X connect 12 0 6 0;
#X connect 13 0 12 1;
#X restore 107 43 pd fm_osc;
#X obj 266 225 r EOC;
#X obj 19 68 s bang;
#X obj 107 11 r bang;
#X obj 227 10 r bang;
#X obj 309 195 r bang;
#N canvas 2385 309 506 506 ar_envelope 0;
#X obj 24 15 inlet;
#X obj 24 332 outlet~;
#X obj 104 148 delay 500;
#X obj 24 302 line~;
#X obj 24 59 random 500;
#X obj 24 83 + 50;
#X msg 24 245 0.75 \$1;
#X floatatom 24 107 5 0 0 0 - - - 0;
#X obj 104 172 random 3000;
#X obj 104 196 + 100;
#X floatatom 104 220 5 0 0 0 - - - 0;
#X msg 104 243 0 \$1;
#X obj 104 58 delay 5;
#X connect 0 0 12 0;
#X connect 0 0 4 0;
#X connect 2 0 8 0;
#X connect 3 0 1 0;
#X connect 4 0 5 0;
#X connect 5 0 7 0;
#X connect 6 0 3 0;
#X connect 7 0 6 0;
#X connect 7 0 2 1;
#X connect 8 0 9 0;
#X connect 9 0 10 0;
#X connect 10 0 11 0;
#X connect 11 0 3 0;
#X connect 12 0 2 0;
#X restore 227 43 pd ar_envelope;
#N canvas 2343 263 450 300 filter 0;
#X obj 37 25 inlet~;
#X obj 67 87 random 88;
#X obj 67 111 + 21;
#X floatatom 67 135 5 0 0 0 - - - 0;
#X obj 67 158 mtof;
#X obj 67 59 inlet;
#X obj 37 197 bp~ 100 3;
#X obj 37 234 outlet~;
#X connect 0 0 6 0;
#X connect 1 0 2 0;
#X connect 2 0 3 0;
#X connect 3 0 4 0;
#X connect 4 0 6 1;
#X connect 5 0 1 0;
#X connect 6 0 7 0;
#X restore 107 175 pd filter;
#X obj 167 141 r bang;
#X obj 18 295 throw~ left;
#X obj 107 295 throw~ right;
#X obj 18 326 catch~ left;
#X obj 43 379 catch~ right;
#X text 9 530 https://www.youtube.com/watch?v=SydWUqNRqQ4;
#X text 267 78 start!;
#N canvas 2028 239 503 761 comb_filter 1;
#X obj 9 7 inlet~;
#X obj 9 57 delwrite~ delBuff 100;
#X obj 157 338 delread~ delBuff;
#X floatatom 157 311 5 0 0 0 - - - 0;
#X obj 178 587 hsl 162 19 0 1 0 0 empty empty empty -2 -10 0 12 #fcfcfc #000000 #000000 0 1;
#X obj 157 645 *~;
#X floatatom 175 618 5 0 0 0 - - - 0;
#X obj 157 682 outlet~;
#X obj 178 177 hsl 162 19 20 80 0 0 empty empty empty -2 -10 0 12 #fcfcfc #000000 #000000 0 1;
#X floatatom 175 203 5 0 0 0 - - - 0;
#X obj 175 226 mtof;
#X msg 123 257 1000;
#X obj 157 284 /;
#X obj 9 31 hip~ 20;
#X obj 175 6 tgl 19 0 empty empty empty 0 -10 0 12 #fcfcfc #000000 #000000 0 1;
#X obj 175 55 random 62;
#X obj 175 79 + 19;
#X floatatom 175 103 5 0 0 0 - - - 0;
#X msg 175 126 \$1 100;
#X obj 175 150 line 0 3;
#X text 24 721 https://www.youtube.com/watch?v=mJ0NXr9wWME;
#X obj 175 363 tgl 19 0 empty empty empty 0 -10 0 12 #fcfcfc #000000 #000000 0 1;
#X obj 175 410 t b b, f 12;
#X obj 175 434 random 100;
#X obj 256 434 random 100;
#X obj 175 458 / 100;
#X obj 256 458 / 100;
#X obj 175 482 +;
#X obj 175 506 / 2;
#X msg 175 534 \$1 100;
#X obj 175 558 line 0 3;
#X obj 175 386 metro 455;
#X obj 175 30 metro 355;
#X text 23 738 https://www.youtube.com/watch?v=3KxUhFi5tHM;
#X connect 0 0 13 0;
#X connect 2 0 5 0;
#X connect 3 0 2 0;
#X connect 4 0 6 0;
#X connect 5 0 7 0;
#X connect 6 0 5 1;
#X connect 8 0 9 0;
#X connect 9 0 10 0;
#X connect 10 0 12 1;
#X connect 10 0 11 0;
#X connect 11 0 12 0;
#X connect 12 0 3 0;
#X connect 13 0 1 0;
#X connect 14 0 32 0;
#X connect 15 0 16 0;
#X connect 16 0 17 0;
#X connect 17 0 18 0;
#X connect 18 0 19 0;
#X connect 19 0 8 0;
#X connect 21 0 31 0;
#X connect 22 0 23 0;
#X connect 22 1 24 0;
#X connect 23 0 25 0;
#X connect 24 0 26 0;
#X connect 25 0 27 0;
#X connect 26 0 27 1;
#X connect 27 0 28 0;
#X connect 28 0 29 0;
#X connect 29 0 30 0;
#X connect 30 0 4 0;
#X connect 31 0 22 0;
#X connect 32 0 15 0;
#X restore 115 228 pd comb_filter;
#X obj 107 146 +~;
#X obj 115 252 s~ comb;
#X obj 125 115 r~ comb;
#X obj 18 354 expr~ tanh($v1);
#X obj 43 406 expr~ tanh($v1);
#X connect 1 0 19 0;
#X connect 2 0 33 0;
#X connect 3 0 4 0;
#X connect 4 0 8 0;
#X connect 5 0 3 0;
#X connect 6 0 5 0;
#X connect 7 0 9 0;
#X connect 8 0 7 0;
#X connect 9 0 11 0;
#X connect 10 0 9 1;
#X connect 11 0 15 0;
#X connect 12 0 10 0;
#X connect 13 0 10 0;
#X connect 14 0 13 0;
#X connect 16 0 1 0;
#X connect 17 0 2 0;
#X connect 18 0 12 0;
#X connect 20 0 17 0;
#X connect 21 0 23 0;
#X connect 22 0 14 0;
#X connect 23 0 3 0;
#X connect 23 0 2 1;
#X connect 24 0 26 0;
#X connect 24 0 27 0;
#X connect 24 0 32 0;
#X connect 25 0 24 1;
#X connect 28 0 36 0;
#X connect 29 0 37 0;
#X connect 32 0 34 0;
#X connect 33 0 24 0;
#X connect 35 0 33 1;
#X connect 36 0 0 0;
#X connect 37 0 0 1;
