#N canvas 1797 239 629 615 12;
#X obj 37 53 osc~ 262;
#X obj 37 224 *~;
#X obj 55 80 bng 19 250 50 0 empty empty empty 0 -10 0 12 #e3c6ff #000000 #000000;
#X msg 55 134 0.5 100;
#X obj 55 184 line~ 0 3;
#X obj 124 115 delay 500;
#X msg 124 150 0 100;
#X obj 219 279 +~;
#X obj 266 214 hsl 162 19 0 127 0 0 empty empty empty -2 -10 0 12 #fcfcfc #000000 #000000 0 1;
#X obj 263 238 mtof;
#X floatatom 263 262 8 0 0 0 - - - 0;
#X obj 263 287 osc~ 65;
#X obj 245 362 *~ -1;
#X obj 245 462 *~;
#X obj 266 413 hsl 162 19 0 2 0 0 empty empty empty -2 -10 0 12 #fcfcfc #000000 #000000 0 1;
#X floatatom 263 437 5 0 0 0 - - - 0;
#X obj 245 486 delwrite~ feedback 1000;
#X obj 240 20 hsl 350 19 0 1000 0 0 empty empty empty -2 -10 0 12 #fcfcfc #000000 #000000 0 1;
#X floatatom 237 44 5 0 0 0 - - - 0;
#X obj 237 67 delread~ feedback 300;
#X obj 237 91 hip~ 40;
#X obj 262 126 *~ 0.1;
#X obj 262 166 dac~;
#X obj 245 386 expr~ $v1 - 1.0/3 * pow($v1 \, 3);
#X obj 245 313 *~;
#X obj 245 338 clip~ -1 1;
#X text 43 570 https://www.youtube.com/watch?v=SCEHW_6iy7A;
#X connect 0 0 1 0;
#X connect 1 0 7 0;
#X connect 2 0 3 0;
#X connect 2 0 5 0;
#X connect 3 0 4 0;
#X connect 4 0 1 1;
#X connect 5 0 6 0;
#X connect 6 0 4 0;
#X connect 7 0 24 0;
#X connect 8 0 9 0;
#X connect 9 0 10 0;
#X connect 10 0 11 0;
#X connect 11 0 24 1;
#X connect 12 0 23 0;
#X connect 13 0 16 0;
#X connect 14 0 15 0;
#X connect 15 0 13 1;
#X connect 17 0 18 0;
#X connect 18 0 19 0;
#X connect 19 0 20 0;
#X connect 20 0 21 0;
#X connect 20 0 7 1;
#X connect 21 0 22 0;
#X connect 21 0 22 1;
#X connect 23 0 13 0;
#X connect 24 0 25 0;
#X connect 25 0 12 0;
