#N canvas 1743 279 503 622 12;
#X obj 63 473 osc~ 200;
#X obj 63 530 samphold~, f 11;
#X obj 63 575 dac~;
#X obj 140 353 hsl 162 19 0 127 0 0 empty empty empty -2 -10 0 12 #fcfcfc #000000 #000000 0 1;
#X floatatom 137 377 5 0 0 0 - - - 0;
#X msg 137 400 \$1 50;
#X obj 137 424 line 0 3;
#X obj 137 448 mtof;
#X obj 137 472 phasor~;
#X obj 63 7 tgl 19 0 empty empty empty 0 -10 0 12 #fcfcfc #000000 #000000 0 1;
#X obj 63 55 bng 19 250 50 0 empty empty empty 0 -10 0 12 #fcfcfc #000000 #000000;
#X obj 63 103 + 1;
#X obj 63 79 i, f 4;
#X obj 63 128 % 8;
#X obj 17 139 s inc;
#X obj 88 55 r inc;
#X floatatom 63 152 5 0 0 0 - - - 0;
#X msg 63 199 48;
#X msg 98 199 51;
#X msg 134 199 48;
#X msg 169 199 49;
#X obj 63 175 select 0 1 2 3 4 5 6 7, f 41;
#X floatatom 347 199 5 0 0 0 - - - 0;
#X msg 205 199 46;
#X msg 240 199 55;
#X msg 276 199 60;
#X msg 311 199 79;
#X msg 63 255 \$1 20;
#X obj 63 279 line 0 3;
#X obj 63 303 mtof;
#X floatatom 63 327 5 0 0 0 - - - 0;
#X obj 137 303 random 98;
#X obj 137 327 + 30;
#X obj 137 279 r bang;
#X obj 11 89 s bang;
#X obj 63 31 metro 250;
#X obj 237 530 samphold~, f 11;
#X obj 314 353 hsl 162 19 0 127 0 0 empty empty empty -2 -10 0 12 #fcfcfc #000000 #000000 0 1;
#X floatatom 311 377 5 0 0 0 - - - 0;
#X msg 311 400 \$1 50;
#X obj 311 424 line 0 3;
#X obj 311 448 mtof;
#X obj 311 472 phasor~;
#X obj 311 303 random 98;
#X obj 311 327 + 30;
#X obj 311 279 r bang;
#X text 187 595 https://www.youtube.com/watch?v=QfLJujXbeh0;
#X connect 0 0 1 0;
#X connect 0 0 36 0;
#X connect 1 0 2 0;
#X connect 3 0 4 0;
#X connect 4 0 5 0;
#X connect 5 0 6 0;
#X connect 6 0 7 0;
#X connect 7 0 8 0;
#X connect 8 0 1 1;
#X connect 9 0 35 0;
#X connect 10 0 12 0;
#X connect 10 0 34 0;
#X connect 11 0 13 0;
#X connect 11 0 14 0;
#X connect 12 0 11 0;
#X connect 13 0 16 0;
#X connect 15 0 12 1;
#X connect 16 0 21 0;
#X connect 17 0 27 0;
#X connect 18 0 27 0;
#X connect 19 0 27 0;
#X connect 20 0 27 0;
#X connect 21 0 17 0;
#X connect 21 1 18 0;
#X connect 21 2 19 0;
#X connect 21 3 20 0;
#X connect 21 4 23 0;
#X connect 21 5 24 0;
#X connect 21 6 25 0;
#X connect 21 7 26 0;
#X connect 21 8 22 0;
#X connect 23 0 27 0;
#X connect 24 0 27 0;
#X connect 25 0 27 0;
#X connect 26 0 27 0;
#X connect 27 0 28 0;
#X connect 28 0 29 0;
#X connect 29 0 30 0;
#X connect 30 0 0 0;
#X connect 31 0 32 0;
#X connect 32 0 3 0;
#X connect 33 0 31 0;
#X connect 35 0 10 0;
#X connect 36 0 2 1;
#X connect 37 0 38 0;
#X connect 38 0 39 0;
#X connect 39 0 40 0;
#X connect 40 0 41 0;
#X connect 41 0 42 0;
#X connect 42 0 36 1;
#X connect 43 0 44 0;
#X connect 44 0 37 0;
#X connect 45 0 43 0;
