#N canvas 1947 262 331 563 12;
#X obj 14 10 hsl 162 19 0 10 0 0 empty empty empty -2 -10 0 12 #fcfcfc #000000 #000000 0 1;
#X obj 11 58 phasor~ 1;
#X obj 11 97 hip~ 40;
#X obj 83 97 threshold~ 0.99 1 0.01 1;
#X obj 83 121 bng 19 250 50 0 empty empty empty 0 -10 0 12 #fcfcfc #000000 #000000;
#X obj 83 145 random 88;
#X obj 83 169 + 20;
#X obj 83 193 vsl 19 162 0 127 0 0 empty empty empty 0 -9 0 12 #fcfcfc #000000 #000000 0 1;
#X floatatom 83 363 5 0 0 0 - - - 0;
#X obj 83 386 mtof;
#X floatatom 83 410 8 0 0 0 - - - 0;
#X obj 11 435 bob~, f 21;
#X obj 155 193 vsl 19 162 0 4 0 0 empty empty empty 0 -9 0 12 #fcfcfc #000000 #000000 0 1;
#X floatatom 155 363 9 0 0 0 - - - 0;
#X obj 11 459 *~ 0.5;
#X obj 11 500 dac~;
#X floatatom 11 34 8 0 0 0 - - - 0;
#X text 8 529 https://www.youtube.com/watch?v=ND-RkepwWQk;
#X connect 0 0 16 0;
#X connect 1 0 2 0;
#X connect 1 0 3 0;
#X connect 2 0 11 0;
#X connect 3 0 4 0;
#X connect 4 0 5 0;
#X connect 5 0 6 0;
#X connect 6 0 7 0;
#X connect 7 0 8 0;
#X connect 8 0 9 0;
#X connect 9 0 10 0;
#X connect 10 0 11 1;
#X connect 11 0 14 0;
#X connect 12 0 13 0;
#X connect 13 0 11 2;
#X connect 14 0 15 0;
#X connect 14 0 15 1;
#X connect 16 0 1 0;
