#N canvas 1904 51 338 740 12;
#X obj 17 573 osc~ 200;
#X obj 18 627 *~ 0.5;
#X obj 18 678 dac~;
#X obj 17 548 +~;
#X obj 38 451 hsl 162 19 0 127 0 0 empty empty empty -2 -10 0 12 #fcfcfc #000000 #000000 0 1;
#X floatatom 35 475 5 0 0 0 - - - 0;
#X obj 35 498 mtof;
#X floatatom 35 522 8 0 0 0 - - - 0;
#X obj 38 330 hsl 162 19 0 127 0 0 empty empty empty -2 -10 0 12 #fcfcfc #000000 #000000 0 1;
#X floatatom 35 354 5 0 0 0 - - - 0;
#X obj 35 377 mtof;
#X floatatom 35 401 8 0 0 0 - - - 0;
#X obj 17 427 *~;
#X obj 17 281 osc~ 200;
#X obj 17 305 *~ 0.5;
#X obj 17 256 +~;
#X obj 38 159 hsl 162 19 0 127 0 0 empty empty empty -2 -10 0 12 #fcfcfc #000000 #000000 0 1;
#X floatatom 35 183 5 0 0 0 - - - 0;
#X obj 35 206 mtof;
#X floatatom 35 230 8 0 0 0 - - - 0;
#X obj 38 38 hsl 162 19 0 127 0 0 empty empty empty -2 -10 0 12 #fcfcfc #000000 #000000 0 1;
#X floatatom 35 62 5 0 0 0 - - - 0;
#X obj 35 85 mtof;
#X floatatom 35 109 8 0 0 0 - - - 0;
#X obj 17 135 *~;
#X obj 33 601 send~ feedback;
#X obj 17 14 receive~ feedback;
#X text 8 703 https://www.youtube.com/watch?v=Fh2unJaNPuY;
#X connect 0 0 1 0;
#X connect 0 0 25 0;
#X connect 1 0 2 0;
#X connect 1 0 2 1;
#X connect 3 0 0 0;
#X connect 4 0 5 0;
#X connect 5 0 6 0;
#X connect 6 0 7 0;
#X connect 7 0 3 1;
#X connect 8 0 9 0;
#X connect 9 0 10 0;
#X connect 10 0 11 0;
#X connect 11 0 12 1;
#X connect 12 0 3 0;
#X connect 13 0 14 0;
#X connect 14 0 12 0;
#X connect 15 0 13 0;
#X connect 16 0 17 0;
#X connect 17 0 18 0;
#X connect 18 0 19 0;
#X connect 19 0 15 1;
#X connect 20 0 21 0;
#X connect 21 0 22 0;
#X connect 22 0 23 0;
#X connect 23 0 24 1;
#X connect 24 0 15 0;
#X connect 26 0 24 0;
