#N canvas 1518 62 788 712 12;
#X obj 39 84 tgl 19 0 empty empty empty 0 -10 0 12 #fcfcfc #000000 #000000 0 1;
#X obj 39 108 metro 1000;
#X obj 39 132 bng 19 250 50 0 empty empty empty 0 -10 0 12 #fcfcfc #000000 #000000;
#X obj 39 181 random 24;
#X obj 39 205 + 84;
#X floatatom 39 229 5 0 0 0 - - - 0;
#X obj 39 252 mtof;
#X floatatom 39 276 8 0 0 0 - - - 0;
#X msg 39 299 \$1 30;
#X obj 39 323 line 0 3;
#X obj 39 533 osc~;
#X obj 39 557 *~ 0.1;
#X obj 96 433 osc~;
#X obj 96 557 *~ 0.1;
#X obj 60 157 s trig;
#X obj 106 12 r trig;
#X obj 106 37 random 3000;
#X obj 106 61 + 50;
#X floatatom 106 85 5 0 0 0 - - - 0;
#X obj 135 433 r trig;
#X obj 135 482 * 0.01;
#X msg 135 507 \$1 30;
#X obj 135 531 line 0 3;
#X obj 207 436 osc~;
#X obj 207 560 *~ 0.1;
#X obj 246 436 r trig;
#X obj 246 485 * 0.01;
#X msg 246 510 \$1 30;
#X obj 246 534 line 0 3;
#X obj 317 435 osc~;
#X obj 317 559 *~ 0.1;
#X obj 356 435 r trig;
#X obj 356 484 * 0.01;
#X msg 356 509 \$1 30;
#X obj 356 533 line 0 3;
#X obj 427 436 osc~;
#X obj 427 560 *~ 0.1;
#X obj 466 436 r trig;
#X obj 466 485 * 0.01;
#X msg 466 510 \$1 30;
#X obj 466 534 line 0 3;
#X obj 135 458 random 10;
#X obj 246 461 random 10;
#X obj 356 460 random 10;
#X obj 466 461 random 10;
#X obj 541 435 osc~;
#X obj 541 559 *~ 0.1;
#X obj 580 435 r trig;
#X obj 580 484 * 0.01;
#X msg 580 509 \$1 30;
#X obj 580 533 line 0 3;
#X obj 580 460 random 10;
#X obj 653 436 osc~;
#X obj 653 560 *~ 0.1;
#X obj 692 436 r trig;
#X obj 692 485 * 0.01;
#X msg 692 510 \$1 30;
#X obj 692 534 line 0 3;
#X obj 692 461 random 10;
#X obj 39 661 throw~ out;
#X text 473 683 https://www.youtube.com/watch?v=fmf__JSh3Yc;
#X obj 382 51 catch~ out;
#X obj 471 85 lop~ 2000;
#X obj 471 111 lop~ 2000;
#X obj 471 137 hip~ 600;
#X obj 471 161 *~ 0.8;
#X obj 471 185 delwrite~ buff 300;
#X obj 382 307 dac~;
#X obj 471 209 delread~ buff 300;
#X obj 471 51 delread~ buff 300;
#X obj 471 233 *~ 0.4;
#X obj 96 398 / 2;
#X obj 207 401 / 3;
#X obj 317 402 / 4;
#X obj 427 405 / 5;
#X obj 541 406 / 6;
#X obj 653 402 / 7;
#X connect 0 0 1 0;
#X connect 1 0 2 0;
#X connect 2 0 3 0;
#X connect 2 0 14 0;
#X connect 3 0 4 0;
#X connect 4 0 5 0;
#X connect 5 0 6 0;
#X connect 6 0 7 0;
#X connect 7 0 8 0;
#X connect 8 0 9 0;
#X connect 9 0 10 0;
#X connect 9 0 71 0;
#X connect 9 0 72 0;
#X connect 9 0 73 0;
#X connect 9 0 74 0;
#X connect 9 0 75 0;
#X connect 9 0 76 0;
#X connect 10 0 11 0;
#X connect 11 0 59 0;
#X connect 12 0 13 0;
#X connect 13 0 59 0;
#X connect 15 0 16 0;
#X connect 16 0 17 0;
#X connect 17 0 18 0;
#X connect 18 0 1 1;
#X connect 19 0 41 0;
#X connect 20 0 21 0;
#X connect 21 0 22 0;
#X connect 22 0 13 1;
#X connect 23 0 24 0;
#X connect 24 0 59 0;
#X connect 25 0 42 0;
#X connect 26 0 27 0;
#X connect 27 0 28 0;
#X connect 28 0 24 1;
#X connect 29 0 30 0;
#X connect 30 0 59 0;
#X connect 31 0 43 0;
#X connect 32 0 33 0;
#X connect 33 0 34 0;
#X connect 34 0 30 1;
#X connect 35 0 36 0;
#X connect 36 0 59 0;
#X connect 37 0 44 0;
#X connect 38 0 39 0;
#X connect 39 0 40 0;
#X connect 40 0 36 1;
#X connect 41 0 20 0;
#X connect 42 0 26 0;
#X connect 43 0 32 0;
#X connect 44 0 38 0;
#X connect 45 0 46 0;
#X connect 46 0 59 0;
#X connect 47 0 51 0;
#X connect 48 0 49 0;
#X connect 49 0 50 0;
#X connect 50 0 46 1;
#X connect 51 0 48 0;
#X connect 52 0 53 0;
#X connect 53 0 59 0;
#X connect 54 0 58 0;
#X connect 55 0 56 0;
#X connect 56 0 57 0;
#X connect 57 0 53 1;
#X connect 58 0 55 0;
#X connect 61 0 62 0;
#X connect 61 0 67 0;
#X connect 61 0 67 1;
#X connect 62 0 63 0;
#X connect 63 0 64 0;
#X connect 64 0 65 0;
#X connect 65 0 66 0;
#X connect 68 0 70 0;
#X connect 69 0 62 0;
#X connect 70 0 67 0;
#X connect 70 0 67 1;
#X connect 71 0 12 0;
#X connect 72 0 23 0;
#X connect 73 0 29 0;
#X connect 74 0 35 0;
#X connect 75 0 45 0;
#X connect 76 0 52 0;
