#N canvas 1896 414 603 327 12;
#X obj 427 36 tgl 39 0 empty empty empty 0 -10 0 12 #fcfcfc #000000 #000000 0 1;
#X obj 427 80 s toggle;
#X obj 497 35 bng 39 250 50 0 empty empty empty 0 -10 0 12 #fcfcfc #000000 #000000;
#X obj 497 79 s randomize;
#X obj 497 8 loadbang;
#X obj 59 14 loadbang;
#X msg 59 56 36;
#X obj 59 80 s note1;
#X msg 120 56 55;
#X msg 178 56 60;
#X msg 237 56 60;
#X obj 120 80 s note2;
#X obj 178 80 s note3;
#X obj 237 80 s note4;
#X msg 295 56 74;
#X obj 295 80 s note5;
#X msg 352 55 75;
#X obj 352 79 s note6;
#X obj 39 153 r note1;
#X obj 467 115 r toggle;
#X obj 467 139 metro 3;
#X obj 467 191 snapshot~;
#X obj 488 165 osc~ 4;
#X floatatom 467 215 9 0 0 0 - - - 0;
#X obj 467 238 * 0.075;
#X obj 467 262 s LFO;
#X obj 261 118 catch~ out;
#X obj 261 277 dac~;
#X obj 317 155 hip~ 600;
#X obj 317 179 delwrite~ buff 900;
#X obj 317 204 delread~ buff 900;
#X obj 317 228 *~ 0.9;
#X obj 317 252 lop~ 4000;
#X obj 317 276 throw~ out;
#N canvas 1519 527 351 423 tape 0;
#X obj 52 37 inlet;
#X obj 34 13 r LFO;
#X obj 34 85 +;
#X floatatom 34 109 6 0 0 0 - - - 0;
#X obj 34 132 mtof;
#X floatatom 34 156 6 0 0 0 - - - 0;
#X floatatom 52 61 5 0 0 0 - - - 0;
#X obj 34 179 phasor~;
#X obj 34 203 lop~ 6000;
#X obj 34 333 *~;
#X obj 34 357 *~ 0.1;
#X obj 34 381 throw~ out;
#X obj 115 83 r toggle;
#X obj 115 107 metro 10000;
#X obj 189 11 r randomize;
#X obj 189 35 random 30000;
#X obj 189 59 + 10000;
#X floatatom 189 83 7 0 0 0 - - - 0;
#X obj 115 131 bng 19 250 50 0 empty empty empty 0 -10 0 12 #fcfcfc #000000 #000000;
#X obj 182 179 delay 2000;
#X obj 249 83 r randomize;
#X floatatom 249 155 7 0 0 0 - - - 0;
#X obj 249 107 random 3000;
#X obj 249 131 + 1000;
#X msg 182 203 0 700;
#X msg 115 203 1 300;
#X obj 115 251 line 0 3;
#X floatatom 115 275 5 0 0 0 - - - 0;
#X connect 0 0 6 0;
#X connect 1 0 2 0;
#X connect 2 0 3 0;
#X connect 3 0 4 0;
#X connect 4 0 5 0;
#X connect 5 0 7 0;
#X connect 6 0 2 1;
#X connect 7 0 8 0;
#X connect 8 0 9 0;
#X connect 9 0 10 0;
#X connect 10 0 11 0;
#X connect 12 0 13 0;
#X connect 13 0 18 0;
#X connect 14 0 15 0;
#X connect 15 0 16 0;
#X connect 16 0 17 0;
#X connect 17 0 13 1;
#X connect 18 0 19 0;
#X connect 18 0 25 0;
#X connect 19 0 24 0;
#X connect 20 0 22 0;
#X connect 21 0 19 1;
#X connect 22 0 23 0;
#X connect 23 0 21 0;
#X connect 24 0 26 0;
#X connect 25 0 26 0;
#X connect 26 0 27 0;
#X connect 27 0 9 1;
#X restore 39 180 pd tape;
#N canvas 1519 527 351 423 tape 0;
#X obj 52 37 inlet;
#X obj 34 13 r LFO;
#X obj 34 85 +;
#X floatatom 34 109 6 0 0 0 - - - 0;
#X obj 34 132 mtof;
#X floatatom 34 156 6 0 0 0 - - - 0;
#X floatatom 52 61 5 0 0 0 - - - 0;
#X obj 34 179 phasor~;
#X obj 34 203 lop~ 6000;
#X obj 34 333 *~;
#X obj 34 357 *~ 0.1;
#X obj 34 381 throw~ out;
#X obj 115 83 r toggle;
#X obj 115 107 metro 10000;
#X obj 189 11 r randomize;
#X obj 189 35 random 30000;
#X obj 189 59 + 10000;
#X floatatom 189 83 7 0 0 0 - - - 0;
#X obj 115 131 bng 19 250 50 0 empty empty empty 0 -10 0 12 #fcfcfc #000000 #000000;
#X obj 182 179 delay 2000;
#X obj 249 83 r randomize;
#X floatatom 249 155 7 0 0 0 - - - 0;
#X obj 249 107 random 3000;
#X obj 249 131 + 1000;
#X msg 182 203 0 700;
#X msg 115 203 1 300;
#X obj 115 251 line 0 3;
#X floatatom 115 275 5 0 0 0 - - - 0;
#X connect 0 0 6 0;
#X connect 1 0 2 0;
#X connect 2 0 3 0;
#X connect 3 0 4 0;
#X connect 4 0 5 0;
#X connect 5 0 7 0;
#X connect 6 0 2 1;
#X connect 7 0 8 0;
#X connect 8 0 9 0;
#X connect 9 0 10 0;
#X connect 10 0 11 0;
#X connect 12 0 13 0;
#X connect 13 0 18 0;
#X connect 14 0 15 0;
#X connect 15 0 16 0;
#X connect 16 0 17 0;
#X connect 17 0 13 1;
#X connect 18 0 19 0;
#X connect 18 0 25 0;
#X connect 19 0 24 0;
#X connect 20 0 22 0;
#X connect 21 0 19 1;
#X connect 22 0 23 0;
#X connect 23 0 21 0;
#X connect 24 0 26 0;
#X connect 25 0 26 0;
#X connect 26 0 27 0;
#X connect 27 0 9 1;
#X restore 96 180 pd tape;
#X obj 96 153 r note2;
#N canvas 1519 527 351 423 tape 0;
#X obj 52 37 inlet;
#X obj 34 13 r LFO;
#X obj 34 85 +;
#X floatatom 34 109 6 0 0 0 - - - 0;
#X obj 34 132 mtof;
#X floatatom 34 156 6 0 0 0 - - - 0;
#X floatatom 52 61 5 0 0 0 - - - 0;
#X obj 34 179 phasor~;
#X obj 34 203 lop~ 6000;
#X obj 34 333 *~;
#X obj 34 357 *~ 0.1;
#X obj 34 381 throw~ out;
#X obj 115 83 r toggle;
#X obj 115 107 metro 10000;
#X obj 189 11 r randomize;
#X obj 189 35 random 30000;
#X obj 189 59 + 10000;
#X floatatom 189 83 7 0 0 0 - - - 0;
#X obj 115 131 bng 19 250 50 0 empty empty empty 0 -10 0 12 #fcfcfc #000000 #000000;
#X obj 182 179 delay 2000;
#X obj 249 83 r randomize;
#X floatatom 249 155 7 0 0 0 - - - 0;
#X obj 249 107 random 3000;
#X obj 249 131 + 1000;
#X msg 182 203 0 700;
#X msg 115 203 1 300;
#X obj 115 251 line 0 3;
#X floatatom 115 275 5 0 0 0 - - - 0;
#X connect 0 0 6 0;
#X connect 1 0 2 0;
#X connect 2 0 3 0;
#X connect 3 0 4 0;
#X connect 4 0 5 0;
#X connect 5 0 7 0;
#X connect 6 0 2 1;
#X connect 7 0 8 0;
#X connect 8 0 9 0;
#X connect 9 0 10 0;
#X connect 10 0 11 0;
#X connect 12 0 13 0;
#X connect 13 0 18 0;
#X connect 14 0 15 0;
#X connect 15 0 16 0;
#X connect 16 0 17 0;
#X connect 17 0 13 1;
#X connect 18 0 19 0;
#X connect 18 0 25 0;
#X connect 19 0 24 0;
#X connect 20 0 22 0;
#X connect 21 0 19 1;
#X connect 22 0 23 0;
#X connect 23 0 21 0;
#X connect 24 0 26 0;
#X connect 25 0 26 0;
#X connect 26 0 27 0;
#X connect 27 0 9 1;
#X restore 155 180 pd tape;
#X obj 155 153 r note3;
#N canvas 1519 527 351 423 tape 0;
#X obj 52 37 inlet;
#X obj 34 13 r LFO;
#X obj 34 85 +;
#X floatatom 34 109 6 0 0 0 - - - 0;
#X obj 34 132 mtof;
#X floatatom 34 156 6 0 0 0 - - - 0;
#X floatatom 52 61 5 0 0 0 - - - 0;
#X obj 34 179 phasor~;
#X obj 34 203 lop~ 6000;
#X obj 34 333 *~;
#X obj 34 357 *~ 0.1;
#X obj 34 381 throw~ out;
#X obj 115 83 r toggle;
#X obj 115 107 metro 10000;
#X obj 189 11 r randomize;
#X obj 189 35 random 30000;
#X obj 189 59 + 10000;
#X floatatom 189 83 7 0 0 0 - - - 0;
#X obj 115 131 bng 19 250 50 0 empty empty empty 0 -10 0 12 #fcfcfc #000000 #000000;
#X obj 182 179 delay 2000;
#X obj 249 83 r randomize;
#X floatatom 249 155 7 0 0 0 - - - 0;
#X obj 249 107 random 3000;
#X obj 249 131 + 1000;
#X msg 182 203 0 700;
#X msg 115 203 1 300;
#X obj 115 251 line 0 3;
#X floatatom 115 275 5 0 0 0 - - - 0;
#X connect 0 0 6 0;
#X connect 1 0 2 0;
#X connect 2 0 3 0;
#X connect 3 0 4 0;
#X connect 4 0 5 0;
#X connect 5 0 7 0;
#X connect 6 0 2 1;
#X connect 7 0 8 0;
#X connect 8 0 9 0;
#X connect 9 0 10 0;
#X connect 10 0 11 0;
#X connect 12 0 13 0;
#X connect 13 0 18 0;
#X connect 14 0 15 0;
#X connect 15 0 16 0;
#X connect 16 0 17 0;
#X connect 17 0 13 1;
#X connect 18 0 19 0;
#X connect 18 0 25 0;
#X connect 19 0 24 0;
#X connect 20 0 22 0;
#X connect 21 0 19 1;
#X connect 22 0 23 0;
#X connect 23 0 21 0;
#X connect 24 0 26 0;
#X connect 25 0 26 0;
#X connect 26 0 27 0;
#X connect 27 0 9 1;
#X restore 39 233 pd tape;
#N canvas 1519 527 351 423 tape 0;
#X obj 52 37 inlet;
#X obj 34 13 r LFO;
#X obj 34 85 +;
#X floatatom 34 109 6 0 0 0 - - - 0;
#X obj 34 132 mtof;
#X floatatom 34 156 6 0 0 0 - - - 0;
#X floatatom 52 61 5 0 0 0 - - - 0;
#X obj 34 179 phasor~;
#X obj 34 203 lop~ 6000;
#X obj 34 333 *~;
#X obj 34 357 *~ 0.1;
#X obj 34 381 throw~ out;
#X obj 115 83 r toggle;
#X obj 115 107 metro 10000;
#X obj 189 11 r randomize;
#X obj 189 35 random 30000;
#X obj 189 59 + 10000;
#X floatatom 189 83 7 0 0 0 - - - 0;
#X obj 115 131 bng 19 250 50 0 empty empty empty 0 -10 0 12 #fcfcfc #000000 #000000;
#X obj 182 179 delay 2000;
#X obj 249 83 r randomize;
#X floatatom 249 155 7 0 0 0 - - - 0;
#X obj 249 107 random 3000;
#X obj 249 131 + 1000;
#X msg 182 203 0 700;
#X msg 115 203 1 300;
#X obj 115 251 line 0 3;
#X floatatom 115 275 5 0 0 0 - - - 0;
#X connect 0 0 6 0;
#X connect 1 0 2 0;
#X connect 2 0 3 0;
#X connect 3 0 4 0;
#X connect 4 0 5 0;
#X connect 5 0 7 0;
#X connect 6 0 2 1;
#X connect 7 0 8 0;
#X connect 8 0 9 0;
#X connect 9 0 10 0;
#X connect 10 0 11 0;
#X connect 12 0 13 0;
#X connect 13 0 18 0;
#X connect 14 0 15 0;
#X connect 15 0 16 0;
#X connect 16 0 17 0;
#X connect 17 0 13 1;
#X connect 18 0 19 0;
#X connect 18 0 25 0;
#X connect 19 0 24 0;
#X connect 20 0 22 0;
#X connect 21 0 19 1;
#X connect 22 0 23 0;
#X connect 23 0 21 0;
#X connect 24 0 26 0;
#X connect 25 0 26 0;
#X connect 26 0 27 0;
#X connect 27 0 9 1;
#X restore 96 233 pd tape;
#N canvas 1541 551 351 423 tape 1;
#X obj 52 37 inlet;
#X obj 34 13 r LFO;
#X obj 34 85 +;
#X floatatom 34 109 6 0 0 0 - - - 0;
#X obj 34 132 mtof;
#X floatatom 34 156 6 0 0 0 - - - 0;
#X floatatom 52 61 5 0 0 0 - - - 0;
#X obj 34 179 phasor~;
#X obj 34 203 lop~ 6000;
#X obj 34 333 *~;
#X obj 34 357 *~ 0.1;
#X obj 34 381 throw~ out;
#X obj 115 83 r toggle;
#X obj 115 107 metro 10000;
#X obj 189 11 r randomize;
#X obj 189 35 random 30000;
#X obj 189 59 + 10000;
#X floatatom 189 83 7 0 0 0 - - - 0;
#X obj 115 131 bng 19 250 50 0 empty empty empty 0 -10 0 12 #fcfcfc #000000 #000000;
#X obj 182 179 delay 2000;
#X obj 249 83 r randomize;
#X floatatom 249 155 7 0 0 0 - - - 0;
#X obj 249 107 random 3000;
#X obj 249 131 + 1000;
#X msg 182 203 0 700;
#X msg 115 203 1 300;
#X obj 115 251 line 0 3;
#X floatatom 115 275 5 0 0 0 - - - 0;
#X connect 0 0 6 0;
#X connect 1 0 2 0;
#X connect 2 0 3 0;
#X connect 3 0 4 0;
#X connect 4 0 5 0;
#X connect 5 0 7 0;
#X connect 6 0 2 1;
#X connect 7 0 8 0;
#X connect 8 0 9 0;
#X connect 9 0 10 0;
#X connect 10 0 11 0;
#X connect 12 0 13 0;
#X connect 13 0 18 0;
#X connect 14 0 15 0;
#X connect 15 0 16 0;
#X connect 16 0 17 0;
#X connect 17 0 13 1;
#X connect 18 0 19 0;
#X connect 18 0 25 0;
#X connect 19 0 24 0;
#X connect 20 0 22 0;
#X connect 21 0 19 1;
#X connect 22 0 23 0;
#X connect 23 0 21 0;
#X connect 24 0 26 0;
#X connect 25 0 26 0;
#X connect 26 0 27 0;
#X connect 27 0 9 1;
#X restore 155 233 pd tape;
#X obj 39 206 r note4;
#X obj 96 206 r note5;
#X obj 155 206 r note6;
#X connect 0 0 1 0;
#X connect 2 0 3 0;
#X connect 4 0 2 0;
#X connect 5 0 6 0;
#X connect 5 0 8 0;
#X connect 5 0 9 0;
#X connect 5 0 10 0;
#X connect 5 0 14 0;
#X connect 5 0 16 0;
#X connect 6 0 7 0;
#X connect 8 0 11 0;
#X connect 9 0 12 0;
#X connect 10 0 13 0;
#X connect 14 0 15 0;
#X connect 16 0 17 0;
#X connect 18 0 34 0;
#X connect 19 0 20 0;
#X connect 20 0 21 0;
#X connect 21 0 23 0;
#X connect 22 0 21 0;
#X connect 23 0 24 0;
#X connect 24 0 25 0;
#X connect 26 0 27 0;
#X connect 26 0 27 1;
#X connect 26 0 28 0;
#X connect 28 0 29 0;
#X connect 30 0 31 0;
#X connect 31 0 32 0;
#X connect 32 0 33 0;
#X connect 36 0 35 0;
#X connect 38 0 37 0;
#X connect 42 0 39 0;
#X connect 43 0 40 0;
#X connect 44 0 41 0;
