#N canvas 1604 248 347 564 12;
#X obj 24 15 hsl 162 19 0 127 0 0 empty empty empty -2 -10 0 12 #fcfcfc #000000 #000000 0 1;
#X floatatom 21 40 8 0 0 0 - - - 0;
#X obj 21 63 mtof;
#X floatatom 21 87 8 0 0 0 - - - 0;
#X obj 21 110 osc~;
#X obj 21 192 *~;
#X floatatom 39 168 8 0 0 0 - - - 0;
#X obj 21 334 *~;
#X obj 42 309 hsl 162 19 0 1 0 0 empty empty empty -2 -10 0 12 #fcfcfc #000000 #000000 0 1;
#X obj 21 382 dac~;
#X obj 67 370 oscope~;
#X obj 21 284 clip~ -1 1, f 15;
#X obj 42 141 hsl 162 19 0 2 0 0 empty empty empty -2 -10 0 12 #fcfcfc #000000 #000000 0 1;
#X floatatom 97 223 8 0 0 0 - - - 0;
#X obj 100 196 hsl 162 19 0 2 0 0 empty empty empty -2 -10 0 12 #fcfcfc #000000 #000000 0 1;
#X obj 72 257 * -1;
#X text 18 538 https://www.youtube.com/watch?v=YpyPLybY3-E;
#X connect 0 0 1 0;
#X connect 1 0 2 0;
#X connect 2 0 3 0;
#X connect 3 0 4 0;
#X connect 4 0 5 0;
#X connect 5 0 11 0;
#X connect 6 0 5 1;
#X connect 7 0 9 0;
#X connect 7 0 9 1;
#X connect 7 0 10 0;
#X connect 8 0 7 1;
#X connect 11 0 7 0;
#X connect 12 0 6 0;
#X connect 13 0 15 1;
#X connect 13 0 11 2;
#X connect 14 0 13 0;
#X connect 15 0 11 1;
