#N canvas 1780 196 327 628 12;
#X obj 18 322 rev1~;
#X obj 18 104 phasor~;
#X obj 21 10 hsl 162 19 0 127 0 0 empty empty empty -2 -10 0 12 #fcfcfc #000000 #000000 0 1;
#X floatatom 18 34 8 0 0 0 - - - 0;
#X obj 18 57 mtof;
#X floatatom 18 81 8 0 0 0 - - - 0;
#X obj 18 250 *~;
#X obj 18 460 dac~;
#X obj 37 274 hsl 162 19 0 127 0 0 empty empty empty -2 -10 0 12 #fcfcfc #000000 #000000 0 1;
#X floatatom 34 298 8 0 0 0 - - - 0;
#X obj 36 130 bng 19 250 50 0 empty empty empty 0 -10 0 12 #fcfcfc #000000 #000000;
#X obj 36 226 line~;
#X msg 36 184 1 200;
#X msg 87 183 0 2000;
#X obj 87 158 delay 500;
#X obj 76 431 oscope~;
#X obj 18 393 *~;
#X obj 39 345 hsl 162 19 0 1 0 0 empty empty empty -2 -10 0 12 #fcfcfc #000000 #000000 0 1;
#X floatatom 36 369 8 0 0 0 - - - 0;
#X text 7 604 https://www.youtube.com/watch?v=ZuB3CtkUFEE;
#X connect 0 0 16 0;
#X connect 1 0 6 0;
#X connect 2 0 3 0;
#X connect 3 0 4 0;
#X connect 4 0 5 0;
#X connect 5 0 1 0;
#X connect 6 0 0 0;
#X connect 8 0 9 0;
#X connect 9 0 0 1;
#X connect 10 0 14 0;
#X connect 10 0 12 0;
#X connect 11 0 6 1;
#X connect 12 0 11 0;
#X connect 13 0 11 0;
#X connect 14 0 13 0;
#X connect 16 0 7 0;
#X connect 16 0 7 1;
#X connect 16 0 15 0;
#X connect 17 0 18 0;
#X connect 18 0 16 1;
