#N canvas 1546 114 1157 882 12;
#X obj 62 660 catch~ L;
#X obj 62 684 expr~ tanh($v1);
#X obj 87 732 expr~ tanh($v1);
#X obj 87 708 catch~ R;
#X obj 62 757 dac~;
#X obj 177 34 tgl 19 0 empty empty empty 0 -10 0 12 #fcfcfc #000000 #000000 0 1;
#X obj 177 58 metro 1000;
#X obj 177 182 random 10;
#X floatatom 177 206 5 0 0 0 - - - 0;
#X obj 177 229 sel 0 1 2 3 4 5 6 7 8 9, f 52;
#X msg 177 253 59;
#X msg 177 337 \$1 500;
#X obj 177 361 line 0 3;
#X obj 83 229 tgl 19 0 empty empty empty 0 -10 0 12 #fcfcfc #000000 #000000 0 1;
#X obj 83 253 metro 10;
#X obj 83 296 snapshot~;
#X obj 159 408 +;
#X obj 159 432 mtof;
#X obj 29 253 osc~ 6;
#X floatatom 83 320 9 0 0 0 - - - 0;
#X floatatom 159 456 8 0 0 0 - - - 0;
#X obj 159 479 osc~;
#X obj 159 504 expr~ tanh($v1);
#X obj 159 528 *~ 0.3;
#X obj 30 579 throw~ L;
#X obj 95 579 throw~ R;
#X msg 213 253 60;
#X msg 249 253 61;
#X msg 285 253 62;
#X msg 321 253 63;
#X msg 501 253 75;
#X msg 465 253 74;
#X msg 429 253 72;
#X msg 393 253 68;
#X msg 357 253 67;
#X floatatom 177 385 7 0 0 0 - - - 0;
#X obj 159 579 throw~ delayL;
#X obj 258 579 throw~ delayR;
#X obj 223 611 catch~ delayL;
#X obj 223 636 expr~ tanh($v1);
#X obj 223 660 hip~ 600;
#X obj 223 684 lop~ 6000;
#X obj 223 708 delwrite~ buffL 666;
#X obj 223 757 *~ 0.85;
#X obj 223 796 throw~ R;
#X obj 288 796 throw~ delayR;
#X obj 388 635 expr~ tanh($v1);
#X obj 388 659 hip~ 600;
#X obj 388 683 lop~ 6000;
#X obj 388 756 *~ 0.85;
#X obj 388 610 catch~ delayR;
#X obj 388 707 delwrite~ buffR 666;
#X obj 388 795 throw~ L;
#X obj 454 795 throw~ delayL;
#X obj 631 156 loadbang;
#X obj 631 204 mtof;
#X obj 631 228 phasor~;
#X obj 631 252 hip~ 20;
#X obj 700 33 tgl 19 0 empty empty empty 0 -10 0 12 #fcfcfc #000000 #000000 0 1;
#X obj 700 57 metro 1000;
#X obj 700 180 random 80;
#X obj 700 204 + 36;
#X floatatom 700 228 5 0 0 0 - - - 0;
#X msg 700 251 \$1 1000;
#X obj 700 276 line 0 3;
#X floatatom 700 300 7 0 0 0 - - - 0;
#X obj 688 361 bob~;
#X obj 767 277 loadbang;
#X msg 767 301 3;
#X obj 623 420 throw~ R;
#X obj 688 420 throw~ delayR;
#X obj 788 419 throw~ L;
#X obj 854 419 throw~ delayL;
#X obj 201 85 random 5000;
#X obj 201 109 + 800;
#X floatatom 201 133 7 0 0 0 - - - 0;
#X obj 201 156 s length;
#X obj 244 34 r length;
#X obj 723 85 random 5000;
#X floatatom 723 133 7 0 0 0 - - - 0;
#X obj 723 156 s lengthPhasor;
#X obj 767 32 r lengthPhasor;
#X obj 723 109 + 3000;
#X obj 223 733 delread~ buffL 547;
#X obj 388 732 delread~ buffR 293;
#X obj 631 276 *~ 0.8;
#X obj 700 323 mtof;
#X msg 631 180 24;
#X text 45 843 https://www.youtube.com/watch?v=L_g3_n_QRKY;
#X connect 0 0 1 0;
#X connect 1 0 4 0;
#X connect 2 0 4 1;
#X connect 3 0 2 0;
#X connect 5 0 6 0;
#X connect 6 0 7 0;
#X connect 6 0 73 0;
#X connect 7 0 8 0;
#X connect 8 0 9 0;
#X connect 9 0 10 0;
#X connect 9 1 26 0;
#X connect 9 2 27 0;
#X connect 9 3 28 0;
#X connect 9 4 29 0;
#X connect 9 5 34 0;
#X connect 9 6 33 0;
#X connect 9 7 32 0;
#X connect 9 8 31 0;
#X connect 9 9 30 0;
#X connect 10 0 11 0;
#X connect 11 0 12 0;
#X connect 12 0 35 0;
#X connect 13 0 14 0;
#X connect 14 0 15 0;
#X connect 15 0 19 0;
#X connect 16 0 17 0;
#X connect 17 0 20 0;
#X connect 18 0 15 0;
#X connect 19 0 16 0;
#X connect 20 0 21 0;
#X connect 21 0 22 0;
#X connect 22 0 23 0;
#X connect 23 0 24 0;
#X connect 23 0 25 0;
#X connect 23 0 37 0;
#X connect 23 0 36 0;
#X connect 26 0 11 0;
#X connect 27 0 11 0;
#X connect 28 0 11 0;
#X connect 29 0 11 0;
#X connect 30 0 11 0;
#X connect 31 0 11 0;
#X connect 32 0 11 0;
#X connect 33 0 11 0;
#X connect 34 0 11 0;
#X connect 35 0 16 1;
#X connect 38 0 39 0;
#X connect 39 0 40 0;
#X connect 40 0 41 0;
#X connect 41 0 42 0;
#X connect 43 0 44 0;
#X connect 43 0 45 0;
#X connect 46 0 47 0;
#X connect 47 0 48 0;
#X connect 48 0 51 0;
#X connect 49 0 52 0;
#X connect 49 0 53 0;
#X connect 50 0 46 0;
#X connect 54 0 87 0;
#X connect 55 0 56 0;
#X connect 56 0 57 0;
#X connect 57 0 85 0;
#X connect 58 0 59 0;
#X connect 59 0 60 0;
#X connect 59 0 78 0;
#X connect 60 0 61 0;
#X connect 61 0 62 0;
#X connect 62 0 63 0;
#X connect 63 0 64 0;
#X connect 64 0 65 0;
#X connect 65 0 86 0;
#X connect 66 0 71 0;
#X connect 66 0 70 0;
#X connect 66 0 69 0;
#X connect 66 0 72 0;
#X connect 67 0 68 0;
#X connect 68 0 66 2;
#X connect 73 0 74 0;
#X connect 74 0 75 0;
#X connect 75 0 76 0;
#X connect 77 0 6 1;
#X connect 78 0 82 0;
#X connect 79 0 80 0;
#X connect 81 0 59 1;
#X connect 82 0 79 0;
#X connect 83 0 43 0;
#X connect 84 0 49 0;
#X connect 85 0 66 0;
#X connect 86 0 66 1;
#X connect 87 0 55 0;
