#N canvas 1511 161 458 432 12;
#N canvas 1971 385 336 384 bpm 0;
#X msg 145 57 60000;
#X obj 145 8 loadbang;
#X msg 212 57 60;
#X floatatom 212 81 5 0 0 0 - - - 0;
#X obj 187 106 /, f 4;
#X floatatom 187 130 5 0 0 0 - - - 0;
#X obj 187 153 s 4th_time;
#X obj 49 189 r ON;
#X obj 49 291 metro;
#X obj 81 214 r 4th_time;
#X obj 81 238 * 4;
#X floatatom 81 262 5 0 0 0 - - - 0;
#X obj 94 291 s whole_time;
#X obj 49 315 bng 19 250 50 0 empty empty empty 0 -10 0 12 #fcfcfc #000000 #000000;
#X obj 49 339 s whole_note;
#X obj 192 189 r ON;
#X obj 192 291 metro;
#X obj 224 214 r 4th_time;
#X floatatom 224 262 5 0 0 0 - - - 0;
#X obj 192 315 bng 19 250 50 0 empty empty empty 0 -10 0 12 #fcfcfc #000000 #000000;
#X obj 224 238 * 1;
#X obj 192 339 s 4th_note;
#X obj 145 32 t b b, f 10;
#X connect 0 0 4 0;
#X connect 1 0 22 0;
#X connect 2 0 3 0;
#X connect 3 0 4 1;
#X connect 4 0 5 0;
#X connect 5 0 6 0;
#X connect 7 0 8 0;
#X connect 8 0 13 0;
#X connect 9 0 10 0;
#X connect 10 0 11 0;
#X connect 11 0 8 1;
#X connect 11 0 12 0;
#X connect 13 0 14 0;
#X connect 15 0 16 0;
#X connect 16 0 19 0;
#X connect 17 0 20 0;
#X connect 18 0 16 1;
#X connect 19 0 21 0;
#X connect 20 0 18 0;
#X connect 22 0 0 0;
#X connect 22 1 2 0;
#X restore 51 81 pd bpm;
#N canvas 2246 323 496 535 sequencer 0;
#X obj 92 44 r ON;
#X obj 92 68 sel 0;
#X obj 92 92 bng 19 250 50 0 empty empty empty 0 -10 0 12 #fcfcfc #000000 #000000;
#X obj 26 44 loadbang;
#X msg 92 116 -1;
#X obj 129 116 r whole_note;
#X obj 129 140 bng 19 250 50 0 empty empty empty 0 -10 0 12 #fcfcfc #000000 #000000;
#X obj 129 164 int 1;
#X obj 209 189 + 1;
#X floatatom 129 188 5 0 0 0 - - - 0;
#X obj 129 211 % 2;
#X obj 129 235 + 1;
#X obj 129 259 sel 1;
#X obj 129 283 bng 19 250 50 0 empty empty empty 0 -10 0 12 #fcfcfc #000000 #000000;
#X obj 129 307 tgl 19 0 empty empty empty 0 -10 0 12 #fcfcfc #000000 #000000 0 1;
#X obj 129 331 s chord;
#X obj 17 187 r ON;
#X obj 17 211 sel 0;
#X msg 63 261 1;
#X obj 63 211 loadbang;
#X connect 0 0 1 0;
#X connect 1 0 2 0;
#X connect 2 0 4 0;
#X connect 3 0 2 0;
#X connect 4 0 7 0;
#X connect 5 0 6 0;
#X connect 6 0 7 0;
#X connect 7 0 8 0;
#X connect 7 0 9 0;
#X connect 8 0 7 1;
#X connect 9 0 10 0;
#X connect 10 0 11 0;
#X connect 11 0 12 0;
#X connect 12 0 13 0;
#X connect 13 0 14 0;
#X connect 14 0 15 0;
#X connect 16 0 17 0;
#X connect 17 0 18 0;
#X connect 18 0 14 0;
#X connect 19 0 18 0;
#X restore 51 104 pd sequencer;
#N canvas 2149 405 347 440 bass 1;
#X obj 47 408 outlet~;
#X obj 47 17 r chord;
#X obj 47 41 tgl 19 0 empty empty empty 0 -10 0 12 #fcfcfc #000000 #000000 0 1;
#X obj 47 65 sel 0;
#X obj 47 89 bng 19 250 50 0 empty empty empty 0 -10 0 12 #fcfcfc #000000 #000000;
#X obj 79 89 bng 19 250 50 0 empty empty empty 0 -10 0 12 #fcfcfc #000000 #000000;
#X floatatom 47 149 5 0 0 0 - - - 0;
#X obj 47 172 mtof;
#X floatatom 47 196 8 0 0 0 - - - 0;
#X msg 79 113 41;
#X msg 47 113 48;
#X obj 47 219 phasor~;
#X obj 47 243 lop~ 100;
#X obj 47 384 *~;
#X obj 129 147 r ON;
#X obj 129 171 sel 1;
#X obj 129 195 bng 19 250 50 0 empty empty empty 0 -10 0 12 #fcfcfc #000000 #000000;
#X msg 129 219 1 500;
#X obj 213 124 r whole_time;
#X obj 213 148 * 2;
#X floatatom 213 172 7 0 0 0 - - - 0;
#X obj 213 195 - 100;
#X obj 181 219 delay;
#X obj 271 171 r ON;
#X obj 271 195 sel 0;
#X obj 271 219 delay 5;
#X msg 181 259 0 100;
#X obj 129 321 line~;
#X connect 1 0 2 0;
#X connect 2 0 3 0;
#X connect 3 0 4 0;
#X connect 3 1 5 0;
#X connect 4 0 10 0;
#X connect 5 0 9 0;
#X connect 6 0 7 0;
#X connect 7 0 8 0;
#X connect 8 0 11 0;
#X connect 9 0 6 0;
#X connect 10 0 6 0;
#X connect 11 0 12 0;
#X connect 12 0 13 0;
#X connect 13 0 0 0;
#X connect 14 0 15 0;
#X connect 15 0 16 0;
#X connect 16 0 17 0;
#X connect 17 0 27 0;
#X connect 18 0 19 0;
#X connect 19 0 20 0;
#X connect 20 0 21 0;
#X connect 21 0 22 1;
#X connect 22 0 26 0;
#X connect 23 0 24 0;
#X connect 24 0 25 0;
#X connect 25 0 26 0;
#X connect 26 0 27 0;
#X connect 27 0 13 1;
#X restore 51 146 pd bass;
#X obj 153 342 dac~;
#X obj 153 302 *~ 0.5;
#X obj 213 302 *~ 0.5;
#X obj 153 216 freeverb~;
#N canvas 2492 412 508 411 melody 1;
#X obj 92 345 outlet~;
#X obj 92 23 r whole_note;
#N canvas 2376 490 416 308 scale 0;
#X obj 54 27 inlet;
#X obj 54 51 bng 19 250 50 0 empty empty empty 0 -10 0 12 #fcfcfc #000000 #000000;
#X obj 54 75 random 8;
#X floatatom 54 99 5 0 0 0 - - - 0;
#X obj 54 122 sel 0 1 2 3 4 5 6 7, f 44;
#X msg 54 146 60;
#X msg 92 146 62;
#X msg 130 146 64;
#X msg 168 146 65;
#X msg 206 146 67;
#X msg 244 146 69;
#X msg 282 146 71;
#X msg 320 146 72;
#X floatatom 54 190 5 0 0 0 - - - 0;
#X obj 54 213 mtof;
#X floatatom 54 237 7 0 0 0 - - - 0;
#X obj 54 260 outlet;
#X connect 0 0 1 0;
#X connect 1 0 2 0;
#X connect 2 0 3 0;
#X connect 3 0 4 0;
#X connect 4 0 5 0;
#X connect 4 1 6 0;
#X connect 4 2 7 0;
#X connect 4 3 8 0;
#X connect 4 4 9 0;
#X connect 4 5 10 0;
#X connect 4 6 11 0;
#X connect 4 7 12 0;
#X connect 5 0 13 0;
#X connect 6 0 13 0;
#X connect 7 0 13 0;
#X connect 8 0 13 0;
#X connect 9 0 13 0;
#X connect 10 0 13 0;
#X connect 11 0 13 0;
#X connect 12 0 13 0;
#X connect 13 0 14 0;
#X connect 14 0 15 0;
#X connect 15 0 16 0;
#X restore 92 72 pd scale;
#X floatatom 92 96 8 0 0 0 - - - 0;
#X obj 92 174 phasor~;
#X obj 92 239 lop~ 100;
#X obj 92 297 *~;
#X obj 92 321 *~ 0.5;
#X obj 242 22 r whole_note;
#X msg 242 151 1 500;
#X obj 342 10 r whole_time;
#X floatatom 342 34 7 0 0 0 - - - 0;
#X obj 342 57 - 500;
#X obj 310 107 delay;
#X msg 310 149 0 500;
#X obj 399 33 r ON;
#X obj 399 57 sel 0;
#X obj 399 81 delay 5;
#X obj 149 128 * 1.001;
#X floatatom 149 152 8 0 0 0 - - - 0;
#X obj 149 174 phasor~;
#X obj 92 47 bng 19 250 50 0 empty empty empty 0 -10 0 12 #fcfcfc #000000 #000000;
#X obj 242 46 bng 19 250 50 0 empty empty empty 0 -10 0 12 #fcfcfc #000000 #000000;
#X obj 242 190 line~;
#X connect 1 0 21 0;
#X connect 2 0 3 0;
#X connect 3 0 4 0;
#X connect 3 0 18 0;
#X connect 4 0 5 0;
#X connect 5 0 6 0;
#X connect 6 0 7 0;
#X connect 7 0 0 0;
#X connect 8 0 22 0;
#X connect 9 0 23 0;
#X connect 10 0 11 0;
#X connect 11 0 12 0;
#X connect 12 0 13 1;
#X connect 13 0 14 0;
#X connect 14 0 23 0;
#X connect 15 0 16 0;
#X connect 16 0 17 0;
#X connect 17 0 14 0;
#X connect 18 0 19 0;
#X connect 19 0 20 0;
#X connect 20 0 5 0;
#X connect 21 0 2 0;
#X connect 22 0 9 0;
#X connect 23 0 6 1;
#X restore 153 146 pd melody;
#X obj 230 74 loadbang;
#X obj 230 98 t b b b, f 16;
#X msg 230 122 1;
#X msg 284 122 0.5;
#X msg 339 122 0.95;
#X msg 230 146 wet \$1;
#X msg 284 146 dry \$1;
#X msg 339 146 roomsize \$1;
#X obj 18 16 tgl 19 0 empty empty empty 0 -10 0 12 #fcfcfc #000000 #000000 0 1;
#X obj 18 40 s ON;
#X text 34 381 https://www.youtube.com/watch?v=fgkUChwL2B4;
#X connect 2 0 4 0;
#X connect 2 0 5 0;
#X connect 4 0 3 0;
#X connect 5 0 3 1;
#X connect 6 0 4 0;
#X connect 6 1 5 0;
#X connect 7 0 6 0;
#X connect 7 0 6 1;
#X connect 8 0 9 0;
#X connect 9 0 10 0;
#X connect 9 1 11 0;
#X connect 9 2 12 0;
#X connect 10 0 13 0;
#X connect 11 0 14 0;
#X connect 12 0 15 0;
#X connect 13 0 6 0;
#X connect 14 0 6 0;
#X connect 15 0 6 0;
#X connect 16 0 17 0;
