#N canvas 1511 217 797 514 12;
#X declare -lib Gem;
#X obj 15 11 declare -lib Gem;
#X msg 49 72 create \, 1;
#X msg 61 128 0 \, destroy;
#X msg 145 128 dimen 640 \, 480;
#X obj 49 191 gemwin;
#X obj 258 29 gemhead;
#X obj 258 201 rotateXYZ;
#X obj 258 298 scaleXYZ;
#X obj 258 434 sphere;
#X floatatom 275 228 5 0 0 0 - - - 0;
#X floatatom 278 77 9 0 0 0 - - - 0;
#X floatatom 298 125 9 0 0 0 - - - 0;
#X floatatom 318 174 9 0 0 0 - - - 0;
#X obj 126 245 loadbang;
#X msg 126 269 draw line;
#X floatatom 293 251 5 0 0 0 - - - 0;
#X floatatom 311 273 5 0 0 0 - - - 0;
#X obj 258 389 colorRGB;
#X floatatom 271 321 5 0 1 0 - - - 0;
#X floatatom 284 343 5 0 1 0 - - - 0;
#X floatatom 297 365 5 0 1 0 - - - 0;
#X text 18 475 https://www.youtube.com/watch?v=y1rBa_STq64;
#X obj 278 52 r rx;
#X obj 298 98 r ry;
#X obj 318 150 r rz;
#X obj 453 136 snapshot~;
#X obj 453 160 * 360;
#X obj 453 184 s rx;
#X obj 547 135 snapshot~;
#X obj 547 159 * 360;
#X obj 547 183 s ry;
#X obj 636 135 snapshot~;
#X obj 636 159 * 360;
#X obj 709 60 metro 50;
#X obj 709 33 tgl 19 0 empty empty empty 0 -10 0 12 #fcfcfc #000000 #000000 0 1;
#X obj 636 183 s rz;
#X obj 453 34 osc~ 0.05;
#X obj 547 33 osc~ 0.04;
#X obj 636 33 osc~ 0.03;
#X connect 1 0 4 0;
#X connect 2 0 4 0;
#X connect 3 0 4 0;
#X connect 5 0 6 0;
#X connect 6 0 7 0;
#X connect 7 0 17 0;
#X connect 9 0 7 1;
#X connect 10 0 6 1;
#X connect 11 0 6 2;
#X connect 12 0 6 3;
#X connect 13 0 14 0;
#X connect 14 0 8 0;
#X connect 15 0 7 2;
#X connect 16 0 7 3;
#X connect 17 0 8 0;
#X connect 18 0 17 1;
#X connect 19 0 17 2;
#X connect 20 0 17 3;
#X connect 22 0 10 0;
#X connect 23 0 11 0;
#X connect 24 0 12 0;
#X connect 25 0 26 0;
#X connect 26 0 27 0;
#X connect 28 0 29 0;
#X connect 29 0 30 0;
#X connect 31 0 32 0;
#X connect 32 0 35 0;
#X connect 33 0 25 0;
#X connect 33 0 28 0;
#X connect 33 0 31 0;
#X connect 34 0 33 0;
#X connect 36 0 25 0;
#X connect 37 0 28 0;
#X connect 38 0 31 0;
