#N canvas 1565 508 545 487 12;
#X declare -lib Gem;
#X obj 15 11 declare -lib Gem;
#X msg 49 72 create \, 1;
#X msg 61 128 0 \, destroy;
#X msg 145 128 dimen 640 \, 480;
#X obj 49 191 gemwin;
#X obj 282 29 gemhead;
#X obj 282 128 rotateXYZ;
#X obj 282 225 scaleXYZ;
#X obj 282 361 sphere;
#X floatatom 299 155 5 0 0 0 - - - 0;
#X floatatom 302 55 5 0 0 0 - - - 0;
#X floatatom 322 78 5 0 0 0 - - - 0;
#X floatatom 342 101 5 0 0 0 - - - 0;
#X obj 126 245 loadbang;
#X msg 126 269 draw line;
#X floatatom 317 178 5 0 0 0 - - - 0;
#X floatatom 335 200 5 0 0 0 - - - 0;
#X obj 282 316 colorRGB;
#X floatatom 295 248 5 0 1 0 - - - 0;
#X floatatom 308 270 5 0 1 0 - - - 0;
#X floatatom 321 292 5 0 1 0 - - - 0;
#X msg 34 407 https://www.youtube.com/watch?v=y1rBa_STq64;
#X obj 34 431 s \$0-web;
#X connect 1 0 4 0;
#X connect 2 0 4 0;
#X connect 3 0 4 0;
#X connect 5 0 6 0;
#X connect 6 0 7 0;
#X connect 7 0 17 0;
#X connect 9 0 7 1;
#X connect 10 0 6 1;
#X connect 11 0 6 2;
#X connect 12 0 6 3;
#X connect 13 0 14 0;
#X connect 14 0 8 0;
#X connect 15 0 7 2;
#X connect 16 0 7 3;
#X connect 17 0 8 0;
#X connect 18 0 17 1;
#X connect 19 0 17 2;
#X connect 20 0 17 3;
#X connect 21 0 22 0;
