#N canvas 826 9 450 641 10;
#X obj 103 25 inlet~;
#X obj 123 64 inlet;
#X obj 123 280 mapping;
#X msg 134 102 0;
#X msg 157 180 0;
#X msg 169 228 0.5;
#X msg 146 137 127;
#X obj 201 20 loadbang;
#X obj 201 54 t b b b b;
#X obj 104 405 *~;
#X obj 103 451 dac~ 1 2;
#X obj 32 453 env~;
#X obj 32 524 outlet;
#X obj 123 370 line~;
#X msg 123 338 \$1 50;
#X obj 32 485 - 100;
#X connect 0 0 9 0;
#X connect 1 0 2 0;
#X connect 2 0 14 0;
#X connect 3 0 2 1;
#X connect 4 0 2 3;
#X connect 5 0 2 4;
#X connect 6 0 2 2;
#X connect 7 0 8 0;
#X connect 8 0 3 0;
#X connect 8 1 6 0;
#X connect 8 2 4 0;
#X connect 8 3 5 0;
#X connect 9 0 10 0;
#X connect 9 0 10 1;
#X connect 9 0 11 0;
#X connect 11 0 15 0;
#X connect 13 0 9 1;
#X connect 14 0 13 0;
#X connect 15 0 12 0;
