#N canvas 821 21 514 617 10;
#X obj 16 7 inlet;
#X obj 16 79 t b f;
#X msg 16 125 60000;
#X obj 16 166 /;
#X obj 16 199 i;
#X obj 16 229 outlet;
#X obj 16 48 i \$1;
#X connect 0 0 6 0;
#X connect 1 0 2 0;
#X connect 1 1 3 1;
#X connect 2 0 3 0;
#X connect 3 0 4 0;
#X connect 4 0 5 0;
#X connect 6 0 1 0;
