#N canvas 1721 297 705 524 12;
#X obj 133 8 loadbang;
#X floatatom 133 67 5 0 0 0 - - - 0;
#X obj 101 100 metro;
#X obj 101 67 tgl 19 0 empty empty empty 0 -10 0 12 #fcfcfc #000000 #000000 0 1;
#X obj 101 132 bng 19 250 50 0 empty empty empty 0 -10 0 12 #fcfcfc #000000 #000000;
#X obj 47 99 sel 0;
#X obj 47 130 bng 19 250 50 0 empty empty empty 0 -10 0 12 #fcfcfc #000000 #000000;
#X obj 8 66 loadbang;
#X msg 47 163 -1;
#X obj 101 203 int 1;
#X obj 166 239 + 1;
#X floatatom 101 239 5 0 0 0 - - - 0;
#X obj 101 272 % 8;
#X obj 101 308 + 1;
#X floatatom 101 341 5 0 0 0 - - - 0;
#X obj 101 418 sel 1;
#X obj 169 416 sel 2;
#X obj 239 417 sel 3;
#X obj 101 450 bng 19 250 50 0 empty empty empty 0 -10 0 12 #fcfcfc #000000 #000000;
#X obj 101 485 send One;
#X obj 169 450 bng 19 250 50 0 empty empty empty 0 -10 0 12 #fcfcfc #000000 #000000;
#X obj 239 449 bng 19 250 50 0 empty empty empty 0 -10 0 12 #fcfcfc #000000 #000000;
#X obj 169 486 send Two;
#X obj 239 485 send Three;
#X obj 319 449 bng 19 250 50 0 empty empty empty 0 -10 0 12 #fcfcfc #000000 #000000;
#X obj 319 485 send Four;
#X obj 319 417 sel 4;
#X obj 392 450 bng 19 250 50 0 empty empty empty 0 -10 0 12 #fcfcfc #000000 #000000;
#X obj 392 418 sel 5;
#X obj 392 485 send Five;
#X obj 464 450 bng 19 250 50 0 empty empty empty 0 -10 0 12 #fcfcfc #000000 #000000;
#X obj 464 418 sel 6;
#X obj 464 485 send Six;
#X obj 530 450 bng 19 250 50 0 empty empty empty 0 -10 0 12 #fcfcfc #000000 #000000;
#X obj 530 418 sel 7;
#X obj 530 485 send Seven;
#X obj 610 449 bng 19 250 50 0 empty empty empty 0 -10 0 12 #fcfcfc #000000 #000000;
#X obj 610 417 sel 8;
#X obj 610 484 send Eight;
#X msg 133 37 500;
#X connect 0 0 39 0;
#X connect 1 0 2 1;
#X connect 2 0 4 0;
#X connect 3 0 2 0;
#X connect 3 0 5 0;
#X connect 4 0 9 0;
#X connect 5 0 6 0;
#X connect 6 0 8 0;
#X connect 7 0 6 0;
#X connect 8 0 9 0;
#X connect 9 0 10 0;
#X connect 9 0 11 0;
#X connect 10 0 9 1;
#X connect 11 0 12 0;
#X connect 12 0 13 0;
#X connect 13 0 14 0;
#X connect 14 0 15 0;
#X connect 14 0 16 0;
#X connect 14 0 17 0;
#X connect 14 0 26 0;
#X connect 14 0 28 0;
#X connect 14 0 31 0;
#X connect 14 0 37 0;
#X connect 14 0 34 0;
#X connect 15 0 18 0;
#X connect 16 0 20 0;
#X connect 17 0 21 0;
#X connect 18 0 19 0;
#X connect 20 0 22 0;
#X connect 21 0 23 0;
#X connect 24 0 25 0;
#X connect 26 0 24 0;
#X connect 27 0 29 0;
#X connect 28 0 27 0;
#X connect 30 0 32 0;
#X connect 31 0 30 0;
#X connect 33 0 35 0;
#X connect 34 0 33 0;
#X connect 36 0 38 0;
#X connect 37 0 36 0;
#X connect 39 0 1 0;
