#N canvas 1949 514 518 334 12;
#X obj 29 255 dac~;
#X obj 318 271 writesf~ 2, f 14;
#X obj 19 19 inlet~;
#X obj 108 18 inlet~;
#X msg 123 179 open \$1;
#X msg 222 208 start;
#X msg 277 208 stop;
#X obj 123 155 makefilename file.wav;
#X obj 277 34 tgl 19 0 empty empty empty 0 -10 0 12 #fcfcfc #000000 #000000 0 1;
#X obj 277 58 select 0 1;
#X obj 310 86 t b b;
#X obj 310 135 s start;
#X obj 222 179 r start;
#X obj 342 112 s filename;
#X obj 123 130 r filename;
#X obj 19 42 throw~ left;
#X obj 108 42 throw~ right;
#X obj 29 202 catch~ left;
#X obj 54 227 catch~ right;
#X obj 318 244 catch~ left;
#X obj 413 243 catch~ right;
#X text 7 308 https://www.youtube.com/watch?v=YFAPwHndK8I;
#X connect 2 0 15 0;
#X connect 3 0 16 0;
#X connect 4 0 1 0;
#X connect 5 0 1 0;
#X connect 6 0 1 0;
#X connect 7 0 4 0;
#X connect 8 0 9 0;
#X connect 9 0 6 0;
#X connect 9 1 10 0;
#X connect 10 0 11 0;
#X connect 10 1 13 0;
#X connect 12 0 5 0;
#X connect 14 0 7 0;
#X connect 17 0 0 0;
#X connect 18 0 0 1;
#X connect 19 0 1 0;
#X connect 20 0 1 1;
#X coords 0 -1 1 1 85 30 1 215 25;
