#N canvas 1599 388 541 343 12;
#X obj 20 253 dac~;
#X obj 323 251 writesf~ 2, f 14;
#X obj 19 19 inlet~;
#X obj 108 18 inlet~;
#X msg 123 152 open \$1;
#X msg 222 181 start;
#X msg 277 181 stop;
#X obj 277 34 tgl 19 0 empty empty empty 0 -10 0 12 #fcfcfc #000000 #000000 0 1;
#X obj 277 58 select 0 1;
#X obj 310 86 t b b;
#X obj 310 135 s start;
#X obj 222 152 r start;
#X obj 342 112 s filename;
#X obj 123 76 r filename;
#X obj 19 42 throw~ left;
#X obj 108 42 throw~ right;
#X obj 20 200 catch~ left;
#X obj 45 225 catch~ right;
#X obj 323 224 catch~ left;
#X obj 418 223 catch~ right;
#X text 25 294 https://www.youtube.com/watch?v=YFAPwHndK8I;
#N canvas 1811 179 385 407 f_name 0;
#X obj 64 161 date, f 31;
#X floatatom 64 187 5 0 0 0 - - - 0;
#X floatatom 106 187 4 0 0 0 - - - 0;
#X floatatom 149 187 4 0 0 0 - - - 0;
#X obj 64 31 bng 19 250 50 0 empty empty empty 0 -10 0 12 #fcfcfc #000000 #000000;
#X obj 64 8 inlet;
#X listbox 63 314 22 0 0 0 - - - 0;
#X obj 96 85 time, f 17;
#X obj 64 55 t b b;
#X floatatom 96 109 4 0 0 0 - - - 0;
#X floatatom 134 109 4 0 0 0 - - - 0;
#X floatatom 173 109 4 0 0 0 - - - 0;
#X obj 106 210 s M;
#X obj 64 210 s Y;
#X obj 149 210 s D;
#X obj 63 265 r Y;
#X obj 96 265 r M;
#X obj 129 266 r D;
#X obj 96 133 s h;
#X obj 134 133 s m;
#X obj 173 133 s s;
#X obj 63 290 pack f f f f f f, f 24;
#X obj 162 266 r h;
#X obj 195 266 r m;
#X obj 228 266 r s;
#X obj 63 337 makesymbol %s_%s_%s_%s_%s_%s;
#X obj 63 361 outlet;
#X connect 0 0 1 0;
#X connect 0 1 2 0;
#X connect 0 2 3 0;
#X connect 1 0 13 0;
#X connect 2 0 12 0;
#X connect 3 0 14 0;
#X connect 4 0 8 0;
#X connect 5 0 4 0;
#X connect 6 0 25 0;
#X connect 7 0 9 0;
#X connect 7 1 10 0;
#X connect 7 2 11 0;
#X connect 8 0 0 0;
#X connect 8 1 7 0;
#X connect 9 0 18 0;
#X connect 10 0 19 0;
#X connect 11 0 20 0;
#X connect 15 0 21 0;
#X connect 16 0 21 1;
#X connect 17 0 21 2;
#X connect 21 0 6 0;
#X connect 22 0 21 3;
#X connect 23 0 21 4;
#X connect 24 0 21 5;
#X connect 25 0 26 0;
#X restore 123 102 pd f_name;
#X obj 123 128 makefilename %s.wav;
#X connect 2 0 14 0;
#X connect 3 0 15 0;
#X connect 4 0 1 0;
#X connect 5 0 1 0;
#X connect 6 0 1 0;
#X connect 7 0 8 0;
#X connect 8 0 6 0;
#X connect 8 1 9 0;
#X connect 9 0 10 0;
#X connect 9 1 12 0;
#X connect 11 0 5 0;
#X connect 13 0 21 0;
#X connect 16 0 0 0;
#X connect 17 0 0 1;
#X connect 18 0 1 0;
#X connect 19 0 1 1;
#X connect 21 0 22 0;
#X connect 22 0 4 0;
#X coords 0 -1 1 1 85 30 1 215 25;
