#N canvas 396 195 403 417 10;
#X obj 49 64 inlet;
#X obj 159 60 inlet;
#X obj 270 61 inlet;
#X obj 49 146 outlet;
#X obj 49 103 expr (1 - $f3) * $f1 + $f3 * $f2;
#X text 46 40 inicio;
#X text 158 40 fin;
#X text 266 40 parametro;
#X connect 0 0 4 0;
#X connect 1 0 4 1;
#X connect 2 0 4 2;
#X connect 4 0 3 0;
