#N canvas 128 85 635 551 10;
#X obj 81 63 hsl 128 15 0 127 0 0 empty empty empty -2 -8 0 10 -262144
-1 -1 6000 1;
#X floatatom 78 90 5 0 0 0 - - -, f 5;
#X msg 78 216 C;
#X msg 78 393 \$1\$2;
#X floatatom 319 296 5 0 0 0 - - -, f 5;
#X obj 78 362 pack s f;
#X obj 78 423 symbol;
#X symbolatom 78 454 10 0 0 0 - - -, f 10;
#X obj 78 151 sel 0 1 2 3 4 5 6 7 8 9 10 11;
#X msg 115 216 C#;
#X msg 153 216 D;
#X msg 197 216 D#;
#X msg 239 216 E;
#X msg 284 216 F;
#X msg 328 216 F#;
#X msg 369 214 G;
#X msg 408 215 G#;
#X msg 447 213 A;
#X msg 486 213 A#;
#X msg 528 212 B;
#X obj 78 119 % 12;
#X obj 319 151 expr floor(($f1 / 12) - 1);
#X obj 78 30 inlet;
#X obj 78 482 outlet;
#X connect 0 0 1 0;
#X connect 1 0 20 0;
#X connect 1 0 21 0;
#X connect 2 0 5 0;
#X connect 3 0 6 0;
#X connect 4 0 5 1;
#X connect 5 0 3 0;
#X connect 6 0 7 0;
#X connect 7 0 23 0;
#X connect 8 0 2 0;
#X connect 8 1 9 0;
#X connect 8 2 10 0;
#X connect 8 3 11 0;
#X connect 8 4 12 0;
#X connect 8 5 13 0;
#X connect 8 6 14 0;
#X connect 8 7 15 0;
#X connect 8 8 16 0;
#X connect 8 9 17 0;
#X connect 8 10 18 0;
#X connect 8 11 19 0;
#X connect 9 0 5 0;
#X connect 10 0 5 0;
#X connect 11 0 5 0;
#X connect 12 0 5 0;
#X connect 13 0 5 0;
#X connect 14 0 5 0;
#X connect 15 0 5 0;
#X connect 16 0 5 0;
#X connect 17 0 5 0;
#X connect 18 0 5 0;
#X connect 19 0 5 0;
#X connect 20 0 8 0;
#X connect 21 0 4 0;
#X connect 22 0 0 0;
