#N canvas 2230 279 553 460 12;
#X obj 47 153 osc~ 400;
#X obj 47 255 oscope~;
#X obj 246 255 oscope~;
#X obj 246 231 osc~ 200;
#X obj 185 197 *~ 1000;
#X obj 50 59 hsl 162 19 0 127 0 0 empty empty empty -2 -10 0 12 #fcfcfc #000000 #000000 0 1;
#X floatatom 47 83 7 0 0 0 - - - 0;
#X obj 47 106 mtof;
#X floatatom 47 130 8 0 0 0 - - - 0;
#X obj 249 133 hsl 162 19 0 127 0 0 empty empty empty -2 -10 0 12 #fcfcfc #000000 #000000 0 1;
#X floatatom 246 157 8 0 0 0 - - - 0;
#X obj 246 180 mtof;
#X floatatom 246 204 7 0 0 0 - - - 0;
#X obj 188 85 hsl 162 19 10 10000 1 0 empty empty empty -2 -10 0 12 #fcfcfc #000000 #000000 0 1;
#X floatatom 185 109 8 0 0 0 - - - 0;
#X connect 0 0 1 0;
#X connect 0 0 4 0;
#X connect 3 0 2 0;
#X connect 4 0 3 0;
#X connect 5 0 6 0;
#X connect 6 0 7 0;
#X connect 7 0 8 0;
#X connect 8 0 0 0;
#X connect 9 0 10 0;
#X connect 10 0 11 0;
#X connect 11 0 12 0;
#X connect 12 0 3 0;
#X connect 13 0 14 0;
#X connect 14 0 4 0;
