#N canvas 1549 222 708 543 12;
#X obj 21 349 inlet~;
#X obj 21 420 tabwrite~ \$0-oscope;
#X obj 91 385 metro 100;
#X obj 91 349 tgl 19 1 empty empty empty 0 -10 0 12 #fcfcfc #000000 #000000 1 1;
#N canvas 0 22 450 278 (subpatch) 0;
#X array \$0-oscope 251 float 4;
#X coords 0 1 250 -1 167 110 1 0 0;
#X restore 107 118 graph;
#X msg 107 277 resize \$1;
#X obj 107 301 s \$0-oscope;
#X obj 110 232 hsl 162 19 44 4400 1 1 empty empty empty -2 -10 0 12 #fcfcfc #000000 #000000 6100 1;
#X connect 0 0 1 0;
#X connect 2 0 1 0;
#X connect 3 0 2 0;
#X connect 5 0 6 0;
#X connect 7 0 5 0;
#X coords 0 -1 1 1 182 157 2 100 100;
