#N canvas 641 339 450 300 10;
#X obj 19 21 inlet;
#X obj 172 57 inlet;
#X obj 19 166 +;
#X obj 19 93 random 1000;
#X obj 19 127 / 1000;
#X obj 19 199 outlet;
#X obj 19 56 t b b;
#X obj 112 93 random \$1;
#X connect 0 0 6 0;
#X connect 1 0 7 1;
#X connect 2 0 5 0;
#X connect 3 0 4 0;
#X connect 4 0 2 0;
#X connect 6 0 3 0;
#X connect 6 1 7 0;
#X connect 7 0 2 1;
