#N canvas 1619 211 1160 670 12;
#X obj 24 412 spigot;
#X floatatom 24 436 5 0 0 0 - - - 0;
#X obj 63 386 tgl 19 0 empty empty empty 0 -10 0 12 #fcfcfc #000000 #000000 0 1;
#X obj 24 94 bng 19 250 50 0 empty empty empty 0 -10 0 12 #fcfcfc #000000 #000000;
#X obj 24 143 i 0;
#X obj 24 167 + 1;
#X obj 24 191 s counter;
#X obj 42 119 r counter;
#X obj 24 215 r counter;
#X floatatom 24 239 5 0 0 0 - - - 0;
#X obj 24 310 bng 19 250 50 0 empty empty empty 0 -10 0 12 #fcfcfc #000000 #000000;
#X obj 91 311 bng 19 250 50 0 empty empty empty 0 -10 0 12 #fcfcfc #000000 #000000;
#X obj 91 409 spigot;
#X floatatom 91 433 5 0 0 0 - - - 0;
#X obj 130 383 tgl 19 0 empty empty empty 0 -10 0 12 #fcfcfc #000000 #000000 0 1;
#X msg 24 334 0, f 2;
#X msg 91 335 1, f 2;
#X obj 24 482 hradio 19 1 0 4 empty empty empty 0 -10 0 12 #fcfcfc #000000 #000000 0;
#X obj 24 286 sel 0 1 2 3, f 39;
#X obj 159 410 spigot;
#X floatatom 159 434 5 0 0 0 - - - 0;
#X obj 198 384 tgl 19 0 empty empty empty 0 -10 0 12 #fcfcfc #000000 #000000 0 1;
#X obj 226 407 spigot;
#X floatatom 226 431 5 0 0 0 - - - 0;
#X obj 265 381 tgl 19 0 empty empty empty 0 -10 0 12 #fcfcfc #000000 #000000 0 1;
#X obj 159 311 bng 19 250 50 0 empty empty empty 0 -10 0 12 #fcfcfc #000000 #000000;
#X obj 226 312 bng 19 250 50 0 empty empty empty 0 -10 0 12 #fcfcfc #000000 #000000;
#X msg 159 335 2, f 2;
#X msg 226 336 3, f 2;
#X obj 24 262 % 4;
#X obj 24 70 inlet;
#X obj 24 506 outlet;
#X obj 391 107 tgl 19 0 empty empty empty 0 -10 0 12 #fcfcfc #000000 #000000 0 1;
#X obj 419 107 tgl 19 0 empty empty empty 0 -10 0 12 #fcfcfc #000000 #000000 0 1;
#X obj 391 165 s a;
#X obj 419 165 s b;
#X obj 63 361 r a;
#X obj 130 358 r b;
#X obj 198 359 r c;
#X obj 265 357 r d;
#X obj 447 107 tgl 19 0 empty empty empty 0 -10 0 12 #fcfcfc #000000 #000000 0 1;
#X obj 475 107 tgl 19 0 empty empty empty 0 -10 0 12 #fcfcfc #000000 #000000 0 1;
#X obj 447 165 s c;
#X obj 475 165 s d;
#X obj 382 136 hradio 19 1 0 4 empty empty empty 0 -10 0 12 #fcfcfc #000000 #000000 0;
#X obj 382 25 r counter;
#X floatatom 382 49 5 0 0 0 - - - 0;
#X obj 382 72 % 4;
#X connect 0 0 1 0;
#X connect 1 0 17 0;
#X connect 2 0 0 1;
#X connect 3 0 4 0;
#X connect 4 0 5 0;
#X connect 5 0 6 0;
#X connect 7 0 4 1;
#X connect 8 0 9 0;
#X connect 9 0 29 0;
#X connect 10 0 15 0;
#X connect 11 0 16 0;
#X connect 12 0 13 0;
#X connect 13 0 17 0;
#X connect 14 0 12 1;
#X connect 15 0 0 0;
#X connect 16 0 12 0;
#X connect 17 0 31 0;
#X connect 18 0 10 0;
#X connect 18 1 11 0;
#X connect 18 2 25 0;
#X connect 18 3 26 0;
#X connect 19 0 20 0;
#X connect 20 0 17 0;
#X connect 21 0 19 1;
#X connect 22 0 23 0;
#X connect 23 0 17 0;
#X connect 24 0 22 1;
#X connect 25 0 27 0;
#X connect 26 0 28 0;
#X connect 27 0 19 0;
#X connect 28 0 22 0;
#X connect 29 0 18 0;
#X connect 30 0 3 0;
#X connect 32 0 34 0;
#X connect 33 0 35 0;
#X connect 36 0 2 0;
#X connect 37 0 14 0;
#X connect 38 0 21 0;
#X connect 39 0 24 0;
#X connect 40 0 42 0;
#X connect 41 0 43 0;
#X connect 45 0 46 0;
#X connect 46 0 47 0;
#X connect 47 0 44 0;
#X coords 0 -1 1 1 200 60 1 300 100;
