#N canvas 1619 211 1160 670 12;
#X obj 24 412 spigot;
#X floatatom 24 436 5 0 0 0 - - - 0;
#X obj 63 386 tgl 19 0 empty empty empty 0 -10 0 12 #fcfcfc #000000 #000000 0 1;
#X obj 24 94 bng 19 250 50 0 empty empty empty 0 -10 0 12 #fcfcfc #000000 #000000;
#X obj 24 143 i 0;
#X obj 24 167 + 1;
#X obj 24 191 s counter;
#X obj 42 119 r counter;
#X obj 24 215 r counter;
#X floatatom 24 239 5 0 0 0 - - - 0;
#X obj 24 310 bng 19 250 50 0 empty empty empty 0 -10 0 12 #fcfcfc #000000 #000000;
#X obj 91 311 bng 19 250 50 0 empty empty empty 0 -10 0 12 #fcfcfc #000000 #000000;
#X obj 91 409 spigot;
#X floatatom 91 433 5 0 0 0 - - - 0;
#X obj 130 383 tgl 19 0 empty empty empty 0 -10 0 12 #fcfcfc #000000 #000000 0 1;
#X msg 24 334 0, f 2;
#X msg 91 335 1, f 2;
#X obj 24 611 hradio 19 1 0 16 empty empty empty 0 -10 0 12 #fcfcfc #000000 #000000 0;
#X obj 158 410 spigot;
#X floatatom 158 434 5 0 0 0 - - - 0;
#X obj 197 384 tgl 19 0 empty empty empty 0 -10 0 12 #fcfcfc #000000 #000000 0 1;
#X obj 225 407 spigot;
#X floatatom 225 431 5 0 0 0 - - - 0;
#X obj 264 381 tgl 19 0 empty empty empty 0 -10 0 12 #fcfcfc #000000 #000000 0 1;
#X obj 158 311 bng 19 250 50 0 empty empty empty 0 -10 0 12 #fcfcfc #000000 #000000;
#X obj 225 312 bng 19 250 50 0 empty empty empty 0 -10 0 12 #fcfcfc #000000 #000000;
#X msg 158 335 2, f 2;
#X msg 225 336 3, f 2;
#X obj 24 70 inlet;
#X obj 24 635 outlet;
#X obj 391 104 tgl 19 0 empty empty empty 0 -10 0 12 #fcfcfc #000000 #000000 0 1;
#X obj 411 104 tgl 19 0 empty empty empty 0 -10 0 12 #fcfcfc #000000 #000000 0 1;
#X obj 391 165 s a;
#X obj 411 187 s b;
#X obj 63 361 r a;
#X obj 130 358 r b;
#X obj 197 359 r c;
#X obj 264 357 r d;
#X obj 431 104 tgl 19 0 empty empty empty 0 -10 0 12 #fcfcfc #000000 #000000 0 1;
#X obj 451 104 tgl 19 0 empty empty empty 0 -10 0 12 #fcfcfc #000000 #000000 0 1;
#X obj 431 165 s c;
#X obj 451 186 s d;
#X obj 391 127 hradio 20 1 0 16 empty empty empty 0 -10 0 12 #202020 #ffffff #000000 0;
#X obj 391 26 r counter;
#X floatatom 391 50 5 0 0 0 - - - 0;
#X obj 24 286 sel 0 1 2 3 4 5 6 7 8 9 10 11 12 13 14 15, f 154;
#X obj 292 407 spigot;
#X floatatom 292 431 5 0 0 0 - - - 0;
#X obj 331 381 tgl 19 0 empty empty empty 0 -10 0 12 #fcfcfc #000000 #000000 0 1;
#X obj 292 312 bng 19 250 50 0 empty empty empty 0 -10 0 12 #fcfcfc #000000 #000000;
#X msg 292 336 4, f 2;
#X obj 359 407 spigot;
#X floatatom 359 431 5 0 0 0 - - - 0;
#X obj 398 381 tgl 19 0 empty empty empty 0 -10 0 12 #fcfcfc #000000 #000000 0 1;
#X obj 359 312 bng 19 250 50 0 empty empty empty 0 -10 0 12 #fcfcfc #000000 #000000;
#X obj 24 262 % 16;
#X obj 391 73 % 16;
#X msg 359 336 5, f 2;
#X obj 331 357 r e;
#X obj 398 357 r f;
#X obj 427 409 spigot;
#X floatatom 427 433 5 0 0 0 - - - 0;
#X obj 466 383 tgl 19 0 empty empty empty 0 -10 0 12 #fcfcfc #000000 #000000 0 1;
#X obj 427 314 bng 19 250 50 0 empty empty empty 0 -10 0 12 #fcfcfc #000000 #000000;
#X obj 494 409 spigot;
#X floatatom 494 433 5 0 0 0 - - - 0;
#X obj 533 383 tgl 19 0 empty empty empty 0 -10 0 12 #fcfcfc #000000 #000000 0 1;
#X obj 494 314 bng 19 250 50 0 empty empty empty 0 -10 0 12 #fcfcfc #000000 #000000;
#X obj 561 409 spigot;
#X floatatom 561 433 5 0 0 0 - - - 0;
#X obj 600 383 tgl 19 0 empty empty empty 0 -10 0 12 #fcfcfc #000000 #000000 0 1;
#X obj 561 314 bng 19 250 50 0 empty empty empty 0 -10 0 12 #fcfcfc #000000 #000000;
#X obj 466 359 r g;
#X obj 533 359 r h;
#X obj 600 359 r i;
#X msg 427 338 6, f 2;
#X msg 494 337 7, f 2;
#X msg 561 338 8, f 2;
#X obj 628 408 spigot;
#X floatatom 628 432 5 0 0 0 - - - 0;
#X obj 667 382 tgl 19 0 empty empty empty 0 -10 0 12 #fcfcfc #000000 #000000 0 1;
#X obj 628 313 bng 19 250 50 0 empty empty empty 0 -10 0 12 #fcfcfc #000000 #000000;
#X obj 695 408 spigot;
#X floatatom 695 432 5 0 0 0 - - - 0;
#X obj 734 382 tgl 19 0 empty empty empty 0 -10 0 12 #fcfcfc #000000 #000000 0 1;
#X obj 695 313 bng 19 250 50 0 empty empty empty 0 -10 0 12 #fcfcfc #000000 #000000;
#X obj 763 408 spigot;
#X floatatom 763 432 5 0 0 0 - - - 0;
#X obj 802 382 tgl 19 0 empty empty empty 0 -10 0 12 #fcfcfc #000000 #000000 0 1;
#X obj 763 313 bng 19 250 50 0 empty empty empty 0 -10 0 12 #fcfcfc #000000 #000000;
#X obj 830 410 spigot;
#X floatatom 830 434 5 0 0 0 - - - 0;
#X obj 869 384 tgl 19 0 empty empty empty 0 -10 0 12 #fcfcfc #000000 #000000 0 1;
#X obj 830 315 bng 19 250 50 0 empty empty empty 0 -10 0 12 #fcfcfc #000000 #000000;
#X obj 897 410 spigot;
#X floatatom 897 434 5 0 0 0 - - - 0;
#X obj 936 384 tgl 19 0 empty empty empty 0 -10 0 12 #fcfcfc #000000 #000000 0 1;
#X obj 897 315 bng 19 250 50 0 empty empty empty 0 -10 0 12 #fcfcfc #000000 #000000;
#X obj 964 410 spigot;
#X floatatom 964 434 5 0 0 0 - - - 0;
#X obj 1003 384 tgl 19 0 empty empty empty 0 -10 0 12 #fcfcfc #000000 #000000 0 1;
#X obj 964 315 bng 19 250 50 0 empty empty empty 0 -10 0 12 #fcfcfc #000000 #000000;
#X msg 628 337 9, f 2;
#X msg 695 337 10, f 2;
#X msg 763 337 11, f 2;
#X msg 830 339 12, f 2;
#X msg 897 338 13, f 2;
#X msg 964 339 14, f 2;
#X obj 667 358 r j;
#X obj 734 358 r k;
#X obj 802 358 r l;
#X obj 869 360 r m;
#X obj 936 360 r n;
#X obj 1003 360 r o;
#X obj 1031 407 spigot;
#X floatatom 1031 431 5 0 0 0 - - - 0;
#X obj 1070 381 tgl 19 0 empty empty empty 0 -10 0 12 #fcfcfc #000000 #000000 0 1;
#X obj 1031 312 bng 19 250 50 0 empty empty empty 0 -10 0 12 #fcfcfc #000000 #000000;
#X msg 1031 336 15, f 2;
#X obj 1070 357 r p;
#X obj 471 104 tgl 19 0 empty empty empty 0 -10 0 12 #fcfcfc #000000 #000000 0 1;
#X obj 491 104 tgl 19 0 empty empty empty 0 -10 0 12 #fcfcfc #000000 #000000 0 1;
#X obj 511 104 tgl 19 0 empty empty empty 0 -10 0 12 #fcfcfc #000000 #000000 0 1;
#X obj 531 104 tgl 19 0 empty empty empty 0 -10 0 12 #fcfcfc #000000 #000000 0 1;
#X obj 471 165 s e;
#X obj 491 187 s f;
#X obj 511 164 s g;
#X obj 531 186 s h;
#X obj 551 104 tgl 19 0 empty empty empty 0 -10 0 12 #fcfcfc #000000 #000000 0 1;
#X obj 571 104 tgl 19 0 empty empty empty 0 -10 0 12 #fcfcfc #000000 #000000 0 1;
#X obj 591 104 tgl 19 0 empty empty empty 0 -10 0 12 #fcfcfc #000000 #000000 0 1;
#X obj 611 104 tgl 19 0 empty empty empty 0 -10 0 12 #fcfcfc #000000 #000000 0 1;
#X obj 631 104 tgl 19 0 empty empty empty 0 -10 0 12 #fcfcfc #000000 #000000 0 1;
#X obj 651 104 tgl 19 0 empty empty empty 0 -10 0 12 #fcfcfc #000000 #000000 0 1;
#X obj 671 104 tgl 19 0 empty empty empty 0 -10 0 12 #fcfcfc #000000 #000000 0 1;
#X obj 691 104 tgl 19 0 empty empty empty 0 -10 0 12 #fcfcfc #000000 #000000 0 1;
#X obj 551 165 s i;
#X obj 571 187 s j;
#X obj 591 165 s k;
#X obj 611 186 s l;
#X obj 631 165 s m;
#X obj 651 187 s n;
#X obj 671 164 s o;
#X obj 691 186 s p;
#X connect 0 0 1 0;
#X connect 1 0 17 0;
#X connect 2 0 0 1;
#X connect 3 0 4 0;
#X connect 4 0 5 0;
#X connect 5 0 6 0;
#X connect 7 0 4 1;
#X connect 8 0 9 0;
#X connect 9 0 55 0;
#X connect 10 0 15 0;
#X connect 11 0 16 0;
#X connect 12 0 13 0;
#X connect 13 0 17 0;
#X connect 14 0 12 1;
#X connect 15 0 0 0;
#X connect 16 0 12 0;
#X connect 17 0 29 0;
#X connect 18 0 19 0;
#X connect 19 0 17 0;
#X connect 20 0 18 1;
#X connect 21 0 22 0;
#X connect 22 0 17 0;
#X connect 23 0 21 1;
#X connect 24 0 26 0;
#X connect 25 0 27 0;
#X connect 26 0 18 0;
#X connect 27 0 21 0;
#X connect 28 0 3 0;
#X connect 30 0 32 0;
#X connect 31 0 33 0;
#X connect 34 0 2 0;
#X connect 35 0 14 0;
#X connect 36 0 20 0;
#X connect 37 0 23 0;
#X connect 38 0 40 0;
#X connect 39 0 41 0;
#X connect 43 0 44 0;
#X connect 44 0 56 0;
#X connect 45 0 10 0;
#X connect 45 1 11 0;
#X connect 45 2 24 0;
#X connect 45 3 25 0;
#X connect 45 4 49 0;
#X connect 45 5 54 0;
#X connect 45 6 63 0;
#X connect 45 7 67 0;
#X connect 45 8 71 0;
#X connect 45 9 81 0;
#X connect 45 10 85 0;
#X connect 45 11 89 0;
#X connect 45 12 93 0;
#X connect 45 13 97 0;
#X connect 45 14 101 0;
#X connect 45 15 117 0;
#X connect 46 0 47 0;
#X connect 47 0 17 0;
#X connect 48 0 46 1;
#X connect 49 0 50 0;
#X connect 50 0 46 0;
#X connect 51 0 52 0;
#X connect 52 0 17 0;
#X connect 53 0 51 1;
#X connect 54 0 57 0;
#X connect 55 0 45 0;
#X connect 56 0 42 0;
#X connect 57 0 51 0;
#X connect 58 0 48 0;
#X connect 59 0 53 0;
#X connect 60 0 61 0;
#X connect 61 0 17 0;
#X connect 62 0 60 1;
#X connect 63 0 75 0;
#X connect 64 0 65 0;
#X connect 65 0 17 0;
#X connect 66 0 64 1;
#X connect 67 0 76 0;
#X connect 68 0 69 0;
#X connect 69 0 17 0;
#X connect 70 0 68 1;
#X connect 71 0 77 0;
#X connect 72 0 62 0;
#X connect 73 0 66 0;
#X connect 74 0 70 0;
#X connect 75 0 60 0;
#X connect 76 0 64 0;
#X connect 77 0 68 0;
#X connect 78 0 79 0;
#X connect 79 0 17 0;
#X connect 80 0 78 1;
#X connect 81 0 102 0;
#X connect 82 0 83 0;
#X connect 83 0 17 0;
#X connect 84 0 82 1;
#X connect 85 0 103 0;
#X connect 86 0 87 0;
#X connect 87 0 17 0;
#X connect 88 0 86 1;
#X connect 89 0 104 0;
#X connect 90 0 91 0;
#X connect 91 0 17 0;
#X connect 92 0 90 1;
#X connect 93 0 105 0;
#X connect 94 0 95 0;
#X connect 95 0 17 0;
#X connect 96 0 94 1;
#X connect 97 0 106 0;
#X connect 98 0 99 0;
#X connect 99 0 17 0;
#X connect 100 0 98 1;
#X connect 101 0 107 0;
#X connect 102 0 78 0;
#X connect 103 0 82 0;
#X connect 104 0 86 0;
#X connect 105 0 90 0;
#X connect 106 0 94 0;
#X connect 107 0 98 0;
#X connect 108 0 80 0;
#X connect 109 0 84 0;
#X connect 110 0 88 0;
#X connect 111 0 92 0;
#X connect 112 0 96 0;
#X connect 113 0 100 0;
#X connect 114 0 115 0;
#X connect 115 0 17 0;
#X connect 116 0 114 1;
#X connect 117 0 118 0;
#X connect 118 0 114 0;
#X connect 119 0 116 0;
#X connect 120 0 124 0;
#X connect 121 0 125 0;
#X connect 122 0 126 0;
#X connect 123 0 127 0;
#X connect 128 0 136 0;
#X connect 129 0 137 0;
#X connect 130 0 138 0;
#X connect 131 0 139 0;
#X connect 132 0 140 0;
#X connect 133 0 141 0;
#X connect 134 0 142 0;
#X connect 135 0 143 0;
#X coords 0 -1 1 1 415 50 1 300 100;
