#N canvas 1548 242 918 494 12;
#X obj 29 352 dac~;
#N canvas 2507 656 290 300 note 1;
#X floatatom 26 72 5 0 0 0 - - - 0;
#X obj 26 95 mtof;
#X obj 26 211 *~;
#X obj 153 144 / 127;
#X obj 26 144 phasor~;
#X floatatom 26 119 8 0 0 0 - - - 0;
#X obj 26 48 unpack 0 0;
#X obj 26 22 inlet;
#X obj 26 235 outlet~;
#N canvas 2637 156 471 408 adsr 1;
#X obj 62 9 inlet;
#X obj 62 33 sel 0, f 8;
#X obj 115 66 t b b b, f 38;
#X obj 431 94 r A;
#X obj 246 119 0;
#X obj 378 91 bng 19 250 50 0 empty empty empty 0 -10 0 12 #fcfcfc #000000 #000000;
#X obj 246 91 bng 19 250 50 0 empty empty empty 0 -10 0 12 #fcfcfc #000000 #000000;
#X obj 246 351 line~;
#X obj 246 375 outlet~;
#X obj 115 143 delay;
#X obj 147 117 + 1;
#X obj 115 91 bng 19 250 50 0 empty empty empty 0 -10 0 12 #fcfcfc #000000 #000000;
#X obj 147 92 r A;
#X obj 148 169 r S;
#X obj 182 169 r D;
#X obj 115 219 route 0;
#X msg 62 66 stop;
#X obj 68 124 r R;
#X listbox 378 152 10 0 0 0 - - - 0;
#X listbox 15 255 10 0 0 0 - - - 0;
#X listbox 115 244 17 0 0 0 - - - 0;
#X obj 378 191 bng 19 250 50 0 empty empty empty 0 -10 0 12 #fcfcfc #000000 #000000;
#X obj 115 281 bng 19 250 50 0 empty empty empty 0 -10 0 12 #fcfcfc #000000 #000000;
#X obj 15 289 bng 19 250 50 0 empty empty empty 0 -10 0 12 #fcfcfc #000000 #000000;
#X obj 115 169 bng 19 250 50 0 empty empty empty 0 -10 0 12 #fcfcfc #000000 #000000;
#X obj 15 151 pack 0 f;
#X obj 115 194 pack 0 f f;
#X obj 378 123 pack 1 f;
#X connect 0 0 1 0;
#X connect 1 0 16 0;
#X connect 1 0 25 0;
#X connect 1 1 2 0;
#X connect 2 0 11 0;
#X connect 2 1 6 0;
#X connect 2 2 5 0;
#X connect 3 0 27 1;
#X connect 4 0 7 0;
#X connect 5 0 27 0;
#X connect 6 0 4 0;
#X connect 7 0 8 0;
#X connect 9 0 24 0;
#X connect 10 0 9 1;
#X connect 11 0 9 0;
#X connect 12 0 10 0;
#X connect 13 0 26 1;
#X connect 14 0 26 2;
#X connect 15 0 20 0;
#X connect 16 0 9 0;
#X connect 17 0 25 1;
#X connect 18 0 7 0;
#X connect 18 0 21 0;
#X connect 19 0 7 0;
#X connect 19 0 23 0;
#X connect 20 0 7 0;
#X connect 20 0 22 0;
#X connect 24 0 26 0;
#X connect 25 0 19 0;
#X connect 26 0 15 0;
#X connect 27 0 18 0;
#X restore 93 144 pd adsr;
#X obj 26 185 *~;
#X obj 121 106 sel 0;
#X connect 0 0 1 0;
#X connect 1 0 5 0;
#X connect 2 0 8 0;
#X connect 3 0 2 1;
#X connect 4 0 10 0;
#X connect 5 0 4 0;
#X connect 6 0 0 0;
#X connect 6 1 9 0;
#X connect 6 1 11 0;
#X connect 7 0 6 0;
#X connect 9 0 10 1;
#X connect 10 0 2 0;
#X connect 11 1 3 0;
#X restore 29 187 pd note;
#X obj 29 99 poly 1 1, f 10;
#X obj 29 147 route 1;
#X obj 230 40 vsl 19 162 0 10000 0 0 empty empty A 0 -9 0 12 #fcfcfc #000000 #000000 0 1;
#X obj 293 40 vsl 19 162 0 10000 0 0 empty empty D 0 -9 0 12 #fcfcfc #000000 #000000 0 1;
#X obj 427 40 vsl 19 162 0 10000 0 0 empty empty R 0 -9 0 12 #fcfcfc #000000 #000000 0 1;
#X obj 357 40 vsl 19 162 0 1 0 0 empty empty S 0 -9 0 12 #fcfcfc #000000 #000000 0 1;
#X obj 230 245 s A;
#X obj 293 245 s D;
#X obj 357 245 s S;
#X obj 427 245 s R;
#X msg 29 14 60 127;
#X msg 43 38 60 0;
#X obj 29 74 unpack f f;
#X obj 29 123 pack f f f;
#X floatatom 230 210 8 0 0 0 - - - 0;
#X floatatom 293 210 8 0 0 0 - - - 0;
#X floatatom 357 210 9 0 0 0 - - - 0;
#X floatatom 427 210 8 0 0 0 - - - 0;
#X connect 1 0 0 0;
#X connect 1 0 0 1;
#X connect 2 0 15 0;
#X connect 2 1 15 1;
#X connect 2 2 15 2;
#X connect 3 0 1 0;
#X connect 4 0 16 0;
#X connect 5 0 17 0;
#X connect 6 0 19 0;
#X connect 7 0 18 0;
#X connect 12 0 14 0;
#X connect 13 0 14 0;
#X connect 14 0 2 0;
#X connect 14 1 2 1;
#X connect 15 0 3 0;
#X connect 16 0 8 0;
#X connect 17 0 9 0;
#X connect 18 0 10 0;
#X connect 19 0 11 0;
